<?xml version="1.0" encoding="utf-8"?>
<!-- Generator: Adobe Illustrator 15.0.2, SVG Export Plug-In . SVG Version: 6.00 Build 0)  -->
<!DOCTYPE svg PUBLIC "-//W3C//DTD SVG 1.1//EN" "http://www.w3.org/Graphics/SVG/1.1/DTD/svg11.dtd">
<svg version="1.1" id="Ebene_1" xmlns="http://www.w3.org/2000/svg" xmlns:xlink="http://www.w3.org/1999/xlink" x="0px" y="0px"
	 width="283.465px" height="283.465px" viewBox="0 0 283.465 283.465" enable-background="new 0 0 283.465 283.465"
	 xml:space="preserve">
<g>
	<path fill="#005A9B" d="M245.531,132.871c0,57.318-46.47,103.799-103.799,103.799c-57.317,0-103.799-46.48-103.799-103.799
		S84.415,29.072,141.732,29.072C199.062,29.072,245.531,75.553,245.531,132.871z"/>
	<circle fill="#FFFFFF" cx="149.278" cy="135.188" r="4.552"/>
	<circle fill="#99BDD7" cx="155.445" cy="124.91" r="4.097"/>
	<circle fill="#99BDD7" cx="163.628" cy="117.641" r="3.687"/>
	<circle fill="#99BDD7" cx="171.419" cy="110.808" r="3.318"/>
	<circle fill="#99BDD7" cx="174.543" cy="102.312" r="2.986"/>
	<circle fill="#99BDD7" cx="172.811" cy="93.892" r="2.688"/>
	<circle fill="#99BDD7" cx="172.473" cy="85.875" r="2.419"/>
	<circle fill="#99BDD7" cx="175.34" cy="79.207" r="2.177"/>
	<circle fill="#99BDD7" cx="180.384" cy="74.702" r="1.959"/>
	<circle fill="#99BDD7" cx="183.574" cy="69.623" r="1.763"/>
	<circle fill="#99BDD7" cx="182.238" cy="64.112" r="1.588"/>
	<circle fill="#99BDD7" cx="179.848" cy="59.664" r="1.286"/>
	<circle fill="#FFFFFF" cx="134.187" cy="135.188" r="4.552"/>
	<circle fill="#FFFFFF" cx="141.543" cy="146.553" r="4.552"/>
	<circle fill="#99BDD7" cx="181.085" cy="92.68" r="2.517"/>
	<circle fill="#99BDD7" cx="188.431" cy="89.349" r="2.265"/>
	<circle fill="#99BDD7" cx="191.7" cy="82.838" r="2.04"/>
	<circle fill="#99BDD7" cx="193.05" cy="76.49" r="1.836"/>
	<circle fill="#99BDD7" cx="194.918" cy="87.938" r="1.763"/>
	<circle fill="#99BDD7" cx="199.49" cy="84.584" r="1.587"/>
	<circle fill="#99BDD7" cx="202.674" cy="80.665" r="1.429"/>
	<circle fill="#99BDD7" cx="162.156" cy="62.192" r="1.286"/>
	<circle fill="#99BDD7" cx="192.822" cy="70.587" r="1.429"/>
	<circle fill="#99BDD7" cx="179.822" cy="111.22" r="2.265"/>
	<circle fill="#99BDD7" cx="186.818" cy="109.188" r="2.04"/>
	<circle fill="#99BDD7" cx="192.389" cy="105.859" r="1.836"/>
	<circle fill="#99BDD7" cx="196.561" cy="101.676" r="1.429"/>
	<circle fill="#99BDD7" cx="167.293" cy="80.163" r="2.274"/>
	<circle fill="#99BDD7" cx="163.633" cy="73.647" r="2.046"/>
	<circle fill="#99BDD7" cx="162.001" cy="67.517" r="1.591"/>
	<circle fill="#99BDD7" cx="128.02" cy="124.91" r="4.097"/>
	<circle fill="#99BDD7" cx="119.836" cy="117.641" r="3.687"/>
	<circle fill="#99BDD7" cx="112.046" cy="110.808" r="3.318"/>
	<circle fill="#99BDD7" cx="108.922" cy="102.312" r="2.986"/>
	<circle fill="#99BDD7" cx="110.654" cy="93.892" r="2.688"/>
	<circle fill="#99BDD7" cx="110.992" cy="85.875" r="2.419"/>
	<circle fill="#99BDD7" cx="108.125" cy="79.207" r="2.177"/>
	<circle fill="#99BDD7" cx="103.081" cy="74.702" r="1.959"/>
	<circle fill="#99BDD7" cx="99.891" cy="69.623" r="1.763"/>
	<circle fill="#99BDD7" cx="101.227" cy="64.112" r="1.588"/>
	<circle fill="#99BDD7" cx="103.617" cy="59.664" r="1.286"/>
	<circle fill="#99BDD7" cx="102.379" cy="92.68" r="2.517"/>
	<circle fill="#99BDD7" cx="95.034" cy="89.349" r="2.265"/>
	<circle fill="#99BDD7" cx="91.765" cy="82.838" r="2.04"/>
	<circle fill="#99BDD7" cx="90.415" cy="76.49" r="1.836"/>
	<circle fill="#99BDD7" cx="88.547" cy="87.938" r="1.763"/>
	<circle fill="#99BDD7" cx="83.975" cy="84.584" r="1.587"/>
	<circle fill="#99BDD7" cx="80.791" cy="80.665" r="1.429"/>
	<circle fill="#99BDD7" cx="121.309" cy="62.192" r="1.286"/>
	<circle fill="#99BDD7" cx="90.643" cy="70.587" r="1.429"/>
	<circle fill="#99BDD7" cx="103.643" cy="111.22" r="2.265"/>
	<circle fill="#99BDD7" cx="96.646" cy="109.188" r="2.04"/>
	<circle fill="#99BDD7" cx="91.076" cy="105.859" r="1.836"/>
	<circle fill="#99BDD7" cx="86.904" cy="101.676" r="1.429"/>
	<circle fill="#99BDD7" cx="116.171" cy="80.163" r="2.274"/>
	<circle fill="#99BDD7" cx="119.832" cy="73.647" r="2.046"/>
	<circle fill="#99BDD7" cx="121.463" cy="67.517" r="1.591"/>
	<g>
		<path fill="#FFFFFF" d="M107.846,171.465v10.849c0,8.188-7.823,11.734-14.029,11.734H82.134c-1.199,0-1.513-0.573-1.513-1.513
			v-31.293c0-0.938,0.313-1.512,1.513-1.512h11.683C100.022,159.73,107.846,163.329,107.846,171.465z M99.657,172.195
			c0-3.286-2.398-5.216-5.841-5.216H88.81v19.819h5.007c3.442,0,5.841-1.878,5.841-5.216V172.195z"/>
		<path fill="#FFFFFF" d="M139.864,188.259v4.276c0,0.939-0.313,1.513-1.513,1.513h-23.365c-1.2,0-1.513-0.573-1.513-1.513v-31.293
			c0-0.938,0.312-1.512,1.513-1.512h22.479c1.199,0,1.513,0.573,1.513,1.512v4.329c0,0.938-0.313,1.513-1.513,1.513h-15.751v5.685
			h13.978c1.199,0,1.513,0.574,1.513,1.513v4.068c0,0.938-0.313,1.512-1.513,1.512h-13.978v6.885h16.638
			C139.551,186.746,139.864,187.32,139.864,188.259z"/>
		<path fill="#FFFFFF" d="M171.518,188.259v4.276c0,0.939-0.313,1.513-1.513,1.513H146.64c-1.199,0-1.513-0.573-1.513-1.513v-31.293
			c0-0.938,0.313-1.512,1.513-1.512h22.479c1.199,0,1.513,0.573,1.513,1.512v4.329c0,0.938-0.313,1.513-1.513,1.513h-15.751v5.685
			h13.978c1.199,0,1.513,0.574,1.513,1.513v4.068c0,0.938-0.313,1.512-1.513,1.512h-13.978v6.885h16.638
			C171.204,186.746,171.518,187.32,171.518,188.259z"/>
		<path fill="#FFFFFF" d="M204.109,194.048h-6.154c-1.252,0-1.878-0.47-2.607-1.564l-5.633-8.397
			c-0.47-0.625-0.574-1.199-0.574-2.659v-4.173c0-0.938,0.313-1.513,1.513-1.513h1.043c2.556,0,4.955-1.772,4.955-4.224
			c0-2.713-2.086-4.434-4.799-4.434h-6.937v25.451c0,1.2-0.573,1.513-1.512,1.513h-5.164c-0.938,0-1.46-0.312-1.46-1.513v-31.24
			c0-0.938,0.261-1.513,1.46-1.513h13.144c5.685,0,8.188,1.147,10.379,3.338c1.93,1.878,3.024,4.851,3.024,8.188
			c0,5.477-4.016,9.283-7.249,10.379l7.354,10.691C205.361,193.109,205.101,194.048,204.109,194.048z"/>
	</g>
</g>
<g>
	<path d="M889.531,132.871c0,57.318-46.47,103.799-103.799,103.799c-57.317,0-103.799-46.48-103.799-103.799
		S728.415,29.072,785.732,29.072C843.062,29.072,889.531,75.553,889.531,132.871z"/>
	<circle fill="#FFFFFF" cx="793.278" cy="135.188" r="4.552"/>
	<circle fill="#969696" cx="799.445" cy="124.91" r="4.097"/>
	<circle fill="#969696" cx="807.628" cy="117.641" r="3.687"/>
	<circle fill="#969696" cx="815.419" cy="110.808" r="3.318"/>
	<circle fill="#969696" cx="818.543" cy="102.312" r="2.986"/>
	<circle fill="#969696" cx="816.811" cy="93.892" r="2.688"/>
	<circle fill="#969696" cx="816.473" cy="85.875" r="2.419"/>
	<circle fill="#969696" cx="819.34" cy="79.207" r="2.177"/>
	<circle fill="#969696" cx="824.384" cy="74.702" r="1.959"/>
	<circle fill="#969696" cx="827.574" cy="69.623" r="1.763"/>
	<circle fill="#969696" cx="826.238" cy="64.112" r="1.588"/>
	<circle fill="#969696" cx="823.848" cy="59.664" r="1.286"/>
	<circle fill="#FFFFFF" cx="778.187" cy="135.188" r="4.552"/>
	<circle fill="#FFFFFF" cx="785.543" cy="146.553" r="4.552"/>
	<circle fill="#969696" cx="825.085" cy="92.68" r="2.517"/>
	<circle fill="#969696" cx="832.431" cy="89.349" r="2.265"/>
	<circle fill="#969696" cx="835.7" cy="82.838" r="2.04"/>
	<circle fill="#969696" cx="837.05" cy="76.49" r="1.836"/>
	<circle fill="#969696" cx="838.918" cy="87.938" r="1.763"/>
	<circle fill="#969696" cx="843.49" cy="84.584" r="1.587"/>
	<circle fill="#969696" cx="846.674" cy="80.665" r="1.429"/>
	<circle fill="#969696" cx="806.156" cy="62.192" r="1.286"/>
	<circle fill="#969696" cx="836.822" cy="70.587" r="1.429"/>
	<circle fill="#969696" cx="823.822" cy="111.22" r="2.265"/>
	<circle fill="#969696" cx="830.818" cy="109.188" r="2.04"/>
	<circle fill="#969696" cx="836.389" cy="105.859" r="1.836"/>
	<circle fill="#969696" cx="840.561" cy="101.676" r="1.429"/>
	<circle fill="#969696" cx="811.293" cy="80.163" r="2.274"/>
	<circle fill="#969696" cx="807.633" cy="73.647" r="2.046"/>
	<circle fill="#969696" cx="806.001" cy="67.517" r="1.591"/>
	<circle fill="#969696" cx="772.02" cy="124.91" r="4.097"/>
	<circle fill="#969696" cx="763.836" cy="117.641" r="3.687"/>
	<circle fill="#969696" cx="756.046" cy="110.808" r="3.318"/>
	<circle fill="#969696" cx="752.922" cy="102.312" r="2.986"/>
	<circle fill="#969696" cx="754.654" cy="93.892" r="2.688"/>
	<circle fill="#969696" cx="754.992" cy="85.875" r="2.419"/>
	<circle fill="#969696" cx="752.125" cy="79.207" r="2.177"/>
	<circle fill="#969696" cx="747.081" cy="74.702" r="1.959"/>
	<circle fill="#969696" cx="743.891" cy="69.623" r="1.763"/>
	<circle fill="#969696" cx="745.227" cy="64.112" r="1.588"/>
	<circle fill="#969696" cx="747.617" cy="59.664" r="1.286"/>
	<circle fill="#969696" cx="746.379" cy="92.68" r="2.517"/>
	<circle fill="#969696" cx="739.034" cy="89.349" r="2.265"/>
	<circle fill="#969696" cx="735.765" cy="82.838" r="2.04"/>
	<circle fill="#969696" cx="734.415" cy="76.49" r="1.836"/>
	<circle fill="#969696" cx="732.547" cy="87.938" r="1.763"/>
	<circle fill="#969696" cx="727.975" cy="84.584" r="1.587"/>
	<circle fill="#969696" cx="724.791" cy="80.665" r="1.429"/>
	<circle fill="#969696" cx="765.309" cy="62.192" r="1.286"/>
	<circle fill="#969696" cx="734.643" cy="70.587" r="1.429"/>
	<circle fill="#969696" cx="747.643" cy="111.22" r="2.265"/>
	<circle fill="#969696" cx="740.646" cy="109.188" r="2.04"/>
	<circle fill="#969696" cx="735.076" cy="105.859" r="1.836"/>
	<circle fill="#969696" cx="730.904" cy="101.676" r="1.429"/>
	<circle fill="#969696" cx="760.171" cy="80.163" r="2.274"/>
	<circle fill="#969696" cx="763.832" cy="73.647" r="2.046"/>
	<circle fill="#969696" cx="765.463" cy="67.517" r="1.591"/>
	<g>
		<path fill="#FFFFFF" d="M751.846,171.465v10.849c0,8.188-7.823,11.734-14.029,11.734h-11.683c-1.199,0-1.513-0.573-1.513-1.513
			v-31.293c0-0.938,0.313-1.512,1.513-1.512h11.683C744.022,159.73,751.846,163.329,751.846,171.465z M743.657,172.195
			c0-3.286-2.398-5.216-5.841-5.216h-5.007v19.819h5.007c3.442,0,5.841-1.878,5.841-5.216V172.195z"/>
		<path fill="#FFFFFF" d="M783.864,188.259v4.276c0,0.939-0.313,1.513-1.513,1.513h-23.365c-1.2,0-1.513-0.573-1.513-1.513v-31.293
			c0-0.938,0.312-1.512,1.513-1.512h22.479c1.199,0,1.513,0.573,1.513,1.512v4.329c0,0.938-0.313,1.513-1.513,1.513h-15.751v5.685
			h13.978c1.199,0,1.513,0.574,1.513,1.513v4.068c0,0.938-0.313,1.512-1.513,1.512h-13.978v6.885h16.638
			C783.551,186.746,783.864,187.32,783.864,188.259z"/>
		<path fill="#FFFFFF" d="M815.518,188.259v4.276c0,0.939-0.313,1.513-1.513,1.513H790.64c-1.199,0-1.513-0.573-1.513-1.513v-31.293
			c0-0.938,0.313-1.512,1.513-1.512h22.479c1.199,0,1.513,0.573,1.513,1.512v4.329c0,0.938-0.313,1.513-1.513,1.513h-15.751v5.685
			h13.978c1.199,0,1.513,0.574,1.513,1.513v4.068c0,0.938-0.313,1.512-1.513,1.512h-13.978v6.885h16.638
			C815.204,186.746,815.518,187.32,815.518,188.259z"/>
		<path fill="#FFFFFF" d="M848.109,194.048h-6.154c-1.252,0-1.878-0.47-2.607-1.564l-5.633-8.397
			c-0.47-0.625-0.574-1.199-0.574-2.659v-4.173c0-0.938,0.313-1.513,1.513-1.513h1.043c2.556,0,4.955-1.772,4.955-4.224
			c0-2.713-2.086-4.434-4.799-4.434h-6.937v25.451c0,1.2-0.573,1.513-1.512,1.513h-5.164c-0.938,0-1.46-0.312-1.46-1.513v-31.24
			c0-0.938,0.261-1.513,1.46-1.513h13.144c5.685,0,8.188,1.147,10.379,3.338c1.93,1.878,3.024,4.851,3.024,8.188
			c0,5.477-4.016,9.283-7.249,10.379l7.354,10.691C849.361,193.109,849.101,194.048,848.109,194.048z"/>
	</g>
</g>
<g>
	<circle fill="#005A9B" cx="472.104" cy="135.188" r="4.553"/>
	<circle fill="#8CB5D2" cx="478.271" cy="124.91" r="4.097"/>
	<circle fill="#8CB5D2" cx="486.454" cy="117.641" r="3.687"/>
	<circle fill="#8CB5D2" cx="494.244" cy="110.808" r="3.318"/>
	<circle fill="#8CB5D2" cx="497.369" cy="102.312" r="2.986"/>
	<circle fill="#8CB5D2" cx="495.637" cy="93.892" r="2.688"/>
	<circle fill="#8CB5D2" cx="495.299" cy="85.875" r="2.42"/>
	<circle fill="#8CB5D2" cx="498.166" cy="79.207" r="2.178"/>
	<circle fill="#8CB5D2" cx="503.21" cy="74.702" r="1.96"/>
	<circle fill="#8CB5D2" cx="506.399" cy="69.623" r="1.763"/>
	<circle fill="#8CB5D2" cx="505.064" cy="64.112" r="1.588"/>
	<circle fill="#8CB5D2" cx="502.673" cy="59.664" r="1.286"/>
	<circle fill="#005A9B" cx="457.013" cy="135.188" r="4.552"/>
	<circle fill="#005A9B" cx="464.369" cy="146.553" r="4.553"/>
	<circle fill="#8CB5D2" cx="503.911" cy="92.68" r="2.518"/>
	<circle fill="#8CB5D2" cx="511.256" cy="89.349" r="2.265"/>
	<circle fill="#8CB5D2" cx="514.525" cy="82.838" r="2.04"/>
	<circle fill="#8CB5D2" cx="515.875" cy="76.49" r="1.836"/>
	<circle fill="#8CB5D2" cx="517.743" cy="87.938" r="1.763"/>
	<path fill="#8CB5D2" d="M522.928,86.049c-0.811,0.338-1.74-0.046-2.078-0.854c-0.338-0.81,0.047-1.74,0.855-2.076
		c0.807-0.338,1.738,0.045,2.076,0.854C524.117,84.78,523.736,85.711,522.928,86.049z"/>
	<circle fill="#8CB5D2" cx="525.5" cy="80.665" r="1.428"/>
	<circle fill="#8CB5D2" cx="484.981" cy="62.192" r="1.286"/>
	<circle fill="#8CB5D2" cx="515.647" cy="70.587" r="1.429"/>
	<circle fill="#8CB5D2" cx="502.647" cy="111.22" r="2.266"/>
	<circle fill="#8CB5D2" cx="509.644" cy="109.188" r="2.04"/>
	<path fill="#8CB5D2" d="M515.297,107.693c-1.012,0.046-1.871-0.737-1.918-1.752c-0.045-1.014,0.738-1.872,1.754-1.917
		c1.01-0.047,1.869,0.737,1.916,1.751C517.094,106.789,516.311,107.648,515.297,107.693z"/>
	<circle fill="#8CB5D2" cx="519.386" cy="101.676" r="1.429"/>
	<circle fill="#8CB5D2" cx="490.119" cy="80.163" r="2.274"/>
	<circle fill="#8CB5D2" cx="486.459" cy="73.647" r="2.046"/>
	<path fill="#8CB5D2" d="M484.619,69.095c0.871,0.116,1.67-0.495,1.787-1.369c0.115-0.872-0.498-1.672-1.371-1.786
		c-0.869-0.115-1.67,0.495-1.787,1.368C483.135,68.181,483.748,68.98,484.619,69.095z"/>
	<circle fill="#8CB5D2" cx="450.846" cy="124.91" r="4.098"/>
	<circle fill="#8CB5D2" cx="442.662" cy="117.641" r="3.688"/>
	<circle fill="#8CB5D2" cx="434.871" cy="110.808" r="3.318"/>
	<circle fill="#8CB5D2" cx="431.748" cy="102.312" r="2.986"/>
	<circle fill="#8CB5D2" cx="433.479" cy="93.892" r="2.688"/>
	<circle fill="#8CB5D2" cx="433.817" cy="85.875" r="2.419"/>
	<circle fill="#8CB5D2" cx="430.95" cy="79.207" r="2.177"/>
	<circle fill="#8CB5D2" cx="425.906" cy="74.702" r="1.959"/>
	<circle fill="#8CB5D2" cx="422.717" cy="69.623" r="1.764"/>
	<circle fill="#8CB5D2" cx="424.053" cy="64.112" r="1.588"/>
	<circle fill="#8CB5D2" cx="426.442" cy="59.664" r="1.286"/>
	<circle fill="#8CB5D2" cx="425.205" cy="92.68" r="2.517"/>
	<circle fill="#8CB5D2" cx="417.859" cy="89.349" r="2.265"/>
	<circle fill="#8CB5D2" cx="414.59" cy="82.838" r="2.04"/>
	<path fill="#8CB5D2" d="M411.84,77.678c0.654,0.773,1.812,0.869,2.588,0.213c0.773-0.656,0.871-1.813,0.213-2.588
		c-0.652-0.772-1.811-0.869-2.586-0.213C411.281,75.746,411.184,76.904,411.84,77.678z"/>
	<circle fill="#8CB5D2" cx="411.372" cy="87.938" r="1.763"/>
	<circle fill="#8CB5D2" cx="406.801" cy="84.584" r="1.587"/>
	<circle fill="#8CB5D2" cx="403.616" cy="80.665" r="1.429"/>
	<circle fill="#8CB5D2" cx="444.135" cy="62.192" r="1.286"/>
	<circle fill="#8CB5D2" cx="413.469" cy="70.587" r="1.429"/>
	<circle fill="#8CB5D2" cx="426.469" cy="111.22" r="2.265"/>
	<path fill="#8CB5D2" d="M419.379,111.226c1.127,0.05,2.08-0.823,2.133-1.947c0.051-1.125-0.822-2.079-1.947-2.129
		c-1.123-0.052-2.078,0.819-2.129,1.945C417.383,110.218,418.254,111.174,419.379,111.226z"/>
	<circle fill="#8CB5D2" cx="413.902" cy="105.859" r="1.836"/>
	<circle fill="#8CB5D2" cx="409.729" cy="101.676" r="1.429"/>
	<path fill="#8CB5D2" d="M440.289,82.033c-1.033,0.713-2.451,0.452-3.162-0.579c-0.717-1.033-0.455-2.448,0.578-3.162
		c1.031-0.712,2.447-0.454,3.162,0.579C441.578,79.902,441.322,81.319,440.289,82.033z"/>
	<path fill="#8CB5D2" d="M443.818,75.331c-0.928,0.641-2.201,0.408-2.844-0.521c-0.643-0.932-0.41-2.205,0.521-2.847
		c0.928-0.642,2.201-0.41,2.846,0.521C444.982,73.415,444.752,74.688,443.818,75.331z"/>
	<path fill="#8CB5D2" d="M444.496,69.095c-0.869,0.116-1.67-0.495-1.785-1.369c-0.115-0.872,0.496-1.672,1.371-1.786
		c0.869-0.115,1.67,0.495,1.785,1.368S445.369,68.98,444.496,69.095z"/>
	<g>
		<path fill="#005A9B" d="M430.672,171.465v10.849c0,8.188-7.824,11.734-14.029,11.734h-11.684c-1.199,0-1.512-0.573-1.512-1.513
			v-31.293c0-0.938,0.312-1.512,1.512-1.512h11.684C422.848,159.73,430.672,163.329,430.672,171.465z M422.482,172.195
			c0-3.286-2.398-5.216-5.84-5.216h-5.008v19.819h5.008c3.441,0,5.84-1.878,5.84-5.216V172.195z"/>
		<path fill="#005A9B" d="M462.689,188.259v4.276c0,0.939-0.312,1.513-1.512,1.513h-23.365c-1.201,0-1.514-0.573-1.514-1.513
			v-31.293c0-0.938,0.312-1.512,1.514-1.512h22.479c1.199,0,1.512,0.573,1.512,1.512v4.329c0,0.938-0.312,1.513-1.512,1.513h-15.752
			v5.685h13.979c1.199,0,1.512,0.574,1.512,1.513v4.068c0,0.938-0.312,1.512-1.512,1.512h-13.979v6.885h16.639
			C462.377,186.746,462.689,187.32,462.689,188.259z"/>
		<path fill="#005A9B" d="M494.344,188.259v4.276c0,0.939-0.314,1.513-1.514,1.513h-23.365c-1.199,0-1.512-0.573-1.512-1.513
			v-31.293c0-0.938,0.312-1.512,1.512-1.512h22.479c1.199,0,1.514,0.573,1.514,1.512v4.329c0,0.938-0.314,1.513-1.514,1.513h-15.75
			v5.685h13.977c1.199,0,1.514,0.574,1.514,1.513v4.068c0,0.938-0.314,1.512-1.514,1.512h-13.977v6.885h16.637
			C494.029,186.746,494.344,187.32,494.344,188.259z"/>
		<path fill="#005A9B" d="M526.936,194.048h-6.154c-1.252,0-1.879-0.47-2.607-1.564l-5.633-8.397
			c-0.471-0.625-0.574-1.199-0.574-2.659v-4.173c0-0.938,0.312-1.513,1.512-1.513h1.043c2.557,0,4.955-1.772,4.955-4.224
			c0-2.713-2.086-4.434-4.799-4.434h-6.936v25.451c0,1.2-0.574,1.513-1.512,1.513h-5.164c-0.939,0-1.461-0.312-1.461-1.513v-31.24
			c0-0.938,0.262-1.513,1.461-1.513h13.143c5.686,0,8.189,1.147,10.379,3.338c1.93,1.878,3.025,4.851,3.025,8.188
			c0,5.477-4.016,9.283-7.25,10.379l7.354,10.691C528.188,193.109,527.926,194.048,526.936,194.048z"/>
	</g>
</g>
<g>
	<circle cx="1110.104" cy="135.188" r="4.553"/>
	<circle fill="#969696" cx="1116.271" cy="124.91" r="4.097"/>
	<circle fill="#969696" cx="1124.454" cy="117.641" r="3.687"/>
	<circle fill="#969696" cx="1132.244" cy="110.808" r="3.318"/>
	<circle fill="#969696" cx="1135.369" cy="102.312" r="2.986"/>
	<circle fill="#969696" cx="1133.637" cy="93.892" r="2.688"/>
	<circle fill="#969696" cx="1133.299" cy="85.875" r="2.42"/>
	<circle fill="#969696" cx="1136.166" cy="79.207" r="2.178"/>
	<circle fill="#969696" cx="1141.21" cy="74.702" r="1.96"/>
	<circle fill="#969696" cx="1144.399" cy="69.623" r="1.763"/>
	<circle fill="#969696" cx="1143.064" cy="64.112" r="1.588"/>
	<circle fill="#969696" cx="1140.673" cy="59.664" r="1.286"/>
	<circle cx="1095.013" cy="135.188" r="4.552"/>
	<circle cx="1102.369" cy="146.553" r="4.553"/>
	<circle fill="#969696" cx="1141.911" cy="92.68" r="2.518"/>
	<circle fill="#969696" cx="1149.256" cy="89.349" r="2.265"/>
	<circle fill="#969696" cx="1152.525" cy="82.838" r="2.04"/>
	<circle fill="#969696" cx="1153.875" cy="76.49" r="1.836"/>
	<circle fill="#969696" cx="1155.743" cy="87.938" r="1.763"/>
	<path fill="#969696" d="M1160.928,86.049c-0.811,0.338-1.74-0.046-2.078-0.854c-0.338-0.81,0.047-1.74,0.855-2.076
		c0.807-0.338,1.738,0.045,2.076,0.854C1162.117,84.78,1161.736,85.711,1160.928,86.049z"/>
	<circle fill="#969696" cx="1163.5" cy="80.665" r="1.428"/>
	<circle fill="#969696" cx="1122.981" cy="62.192" r="1.286"/>
	<circle fill="#969696" cx="1153.647" cy="70.587" r="1.429"/>
	<circle fill="#969696" cx="1140.647" cy="111.22" r="2.266"/>
	<circle fill="#969696" cx="1147.644" cy="109.188" r="2.04"/>
	<path fill="#969696" d="M1153.297,107.693c-1.012,0.046-1.871-0.737-1.918-1.752c-0.045-1.014,0.738-1.872,1.754-1.917
		c1.01-0.047,1.869,0.737,1.916,1.751C1155.094,106.789,1154.311,107.648,1153.297,107.693z"/>
	<circle fill="#969696" cx="1157.386" cy="101.676" r="1.429"/>
	<circle fill="#969696" cx="1128.119" cy="80.163" r="2.274"/>
	<circle fill="#969696" cx="1124.459" cy="73.647" r="2.046"/>
	<path fill="#969696" d="M1122.619,69.095c0.871,0.116,1.67-0.495,1.787-1.369c0.115-0.872-0.498-1.672-1.371-1.786
		c-0.869-0.115-1.67,0.495-1.787,1.368C1121.135,68.181,1121.748,68.98,1122.619,69.095z"/>
	<circle fill="#969696" cx="1088.846" cy="124.91" r="4.098"/>
	<circle fill="#969696" cx="1080.662" cy="117.641" r="3.688"/>
	<circle fill="#969696" cx="1072.871" cy="110.808" r="3.318"/>
	<circle fill="#969696" cx="1069.748" cy="102.312" r="2.986"/>
	<circle fill="#969696" cx="1071.479" cy="93.892" r="2.688"/>
	<circle fill="#969696" cx="1071.817" cy="85.875" r="2.419"/>
	<circle fill="#969696" cx="1068.95" cy="79.207" r="2.177"/>
	<circle fill="#969696" cx="1063.906" cy="74.702" r="1.959"/>
	<circle fill="#969696" cx="1060.717" cy="69.623" r="1.764"/>
	<circle fill="#969696" cx="1062.053" cy="64.112" r="1.588"/>
	<circle fill="#969696" cx="1064.442" cy="59.664" r="1.286"/>
	<circle fill="#969696" cx="1063.205" cy="92.68" r="2.517"/>
	<circle fill="#969696" cx="1055.859" cy="89.349" r="2.265"/>
	<circle fill="#969696" cx="1052.59" cy="82.838" r="2.04"/>
	<path fill="#969696" d="M1049.84,77.678c0.654,0.773,1.812,0.869,2.588,0.213c0.773-0.656,0.871-1.813,0.213-2.588
		c-0.652-0.772-1.811-0.869-2.586-0.213C1049.281,75.746,1049.184,76.904,1049.84,77.678z"/>
	<circle fill="#969696" cx="1049.372" cy="87.938" r="1.763"/>
	<circle fill="#969696" cx="1044.801" cy="84.584" r="1.587"/>
	<circle fill="#969696" cx="1041.616" cy="80.665" r="1.429"/>
	<circle fill="#969696" cx="1082.135" cy="62.192" r="1.286"/>
	<circle fill="#969696" cx="1051.469" cy="70.587" r="1.429"/>
	<circle fill="#969696" cx="1064.469" cy="111.22" r="2.265"/>
	<path fill="#969696" d="M1057.379,111.226c1.127,0.05,2.08-0.823,2.133-1.947c0.051-1.125-0.822-2.079-1.947-2.129
		c-1.123-0.052-2.078,0.819-2.129,1.945C1055.383,110.218,1056.254,111.174,1057.379,111.226z"/>
	<circle fill="#969696" cx="1051.902" cy="105.859" r="1.836"/>
	<circle fill="#969696" cx="1047.729" cy="101.676" r="1.429"/>
	<path fill="#969696" d="M1078.289,82.033c-1.033,0.713-2.451,0.452-3.162-0.579c-0.717-1.033-0.455-2.448,0.578-3.162
		c1.031-0.712,2.447-0.454,3.162,0.579C1079.578,79.902,1079.322,81.319,1078.289,82.033z"/>
	<path fill="#969696" d="M1081.818,75.331c-0.928,0.641-2.201,0.408-2.844-0.521c-0.643-0.932-0.41-2.205,0.521-2.847
		c0.928-0.642,2.201-0.41,2.846,0.521C1082.982,73.415,1082.752,74.688,1081.818,75.331z"/>
	<path fill="#969696" d="M1082.496,69.095c-0.869,0.116-1.67-0.495-1.785-1.369c-0.115-0.872,0.496-1.672,1.371-1.786
		c0.869-0.115,1.67,0.495,1.785,1.368S1083.369,68.98,1082.496,69.095z"/>
	<g>
		<path d="M1068.672,171.465v10.849c0,8.188-7.824,11.734-14.029,11.734h-11.684c-1.199,0-1.512-0.573-1.512-1.513v-31.293
			c0-0.938,0.312-1.512,1.512-1.512h11.684C1060.848,159.73,1068.672,163.329,1068.672,171.465z M1060.482,172.195
			c0-3.286-2.398-5.216-5.84-5.216h-5.008v19.819h5.008c3.441,0,5.84-1.878,5.84-5.216V172.195z"/>
		<path d="M1100.689,188.259v4.276c0,0.939-0.312,1.513-1.512,1.513h-23.365c-1.201,0-1.514-0.573-1.514-1.513v-31.293
			c0-0.938,0.312-1.512,1.514-1.512h22.479c1.199,0,1.512,0.573,1.512,1.512v4.329c0,0.938-0.312,1.513-1.512,1.513h-15.752v5.685
			h13.979c1.199,0,1.512,0.574,1.512,1.513v4.068c0,0.938-0.312,1.512-1.512,1.512h-13.979v6.885h16.639
			C1100.377,186.746,1100.689,187.32,1100.689,188.259z"/>
		<path d="M1132.344,188.259v4.276c0,0.939-0.314,1.513-1.514,1.513h-23.365c-1.199,0-1.512-0.573-1.512-1.513v-31.293
			c0-0.938,0.312-1.512,1.512-1.512h22.479c1.199,0,1.514,0.573,1.514,1.512v4.329c0,0.938-0.314,1.513-1.514,1.513h-15.75v5.685
			h13.977c1.199,0,1.514,0.574,1.514,1.513v4.068c0,0.938-0.314,1.512-1.514,1.512h-13.977v6.885h16.637
			C1132.029,186.746,1132.344,187.32,1132.344,188.259z"/>
		<path d="M1164.936,194.048h-6.154c-1.252,0-1.879-0.47-2.607-1.564l-5.633-8.397c-0.471-0.625-0.574-1.199-0.574-2.659v-4.173
			c0-0.938,0.312-1.513,1.512-1.513h1.043c2.557,0,4.955-1.772,4.955-4.224c0-2.713-2.086-4.434-4.799-4.434h-6.936v25.451
			c0,1.2-0.574,1.513-1.512,1.513h-5.164c-0.939,0-1.461-0.312-1.461-1.513v-31.24c0-0.938,0.262-1.513,1.461-1.513h13.143
			c5.686,0,8.189,1.147,10.379,3.338c1.93,1.878,3.025,4.851,3.025,8.188c0,5.477-4.016,9.283-7.25,10.379l7.354,10.691
			C1166.188,193.109,1165.926,194.048,1164.936,194.048z"/>
	</g>
</g>
</svg>
