<?xml version="1.0" encoding="utf-8"?>
<!-- Generator: Adobe Illustrator 15.0.2, SVG Export Plug-In . SVG Version: 6.00 Build 0)  -->
<!DOCTYPE svg PUBLIC "-//W3C//DTD SVG 1.1//EN" "http://www.w3.org/Graphics/SVG/1.1/DTD/svg11.dtd">
<svg version="1.1" id="Ebene_1" xmlns="http://www.w3.org/2000/svg" xmlns:xlink="http://www.w3.org/1999/xlink" x="0px" y="0px"
	 width="283.465px" height="283.465px" viewBox="0 0 283.465 283.465" enable-background="new 0 0 283.465 283.465"
	 xml:space="preserve">
<g>
	<path fill="#005A9B" d="M-398.469,132.871c0,57.318-46.47,103.799-103.799,103.799c-57.317,0-103.799-46.48-103.799-103.799
		s46.481-103.799,103.799-103.799C-444.938,29.072-398.469,75.553-398.469,132.871z"/>
	<circle fill="#FFFFFF" cx="-494.722" cy="135.188" r="4.552"/>
	<circle fill="#99BDD7" cx="-488.555" cy="124.91" r="4.097"/>
	<circle fill="#99BDD7" cx="-480.372" cy="117.641" r="3.687"/>
	<circle fill="#99BDD7" cx="-472.581" cy="110.808" r="3.318"/>
	<circle fill="#99BDD7" cx="-469.457" cy="102.312" r="2.986"/>
	<circle fill="#99BDD7" cx="-471.189" cy="93.892" r="2.688"/>
	<circle fill="#99BDD7" cx="-471.527" cy="85.875" r="2.419"/>
	<circle fill="#99BDD7" cx="-468.66" cy="79.207" r="2.177"/>
	<circle fill="#99BDD7" cx="-463.616" cy="74.702" r="1.959"/>
	<circle fill="#99BDD7" cx="-460.426" cy="69.623" r="1.763"/>
	<circle fill="#99BDD7" cx="-461.762" cy="64.112" r="1.588"/>
	<circle fill="#99BDD7" cx="-464.152" cy="59.664" r="1.286"/>
	<circle fill="#FFFFFF" cx="-509.813" cy="135.188" r="4.552"/>
	<circle fill="#FFFFFF" cx="-502.457" cy="146.553" r="4.552"/>
	<circle fill="#99BDD7" cx="-462.915" cy="92.68" r="2.517"/>
	<circle fill="#99BDD7" cx="-455.569" cy="89.349" r="2.265"/>
	<circle fill="#99BDD7" cx="-452.3" cy="82.838" r="2.04"/>
	<circle fill="#99BDD7" cx="-450.95" cy="76.49" r="1.836"/>
	<circle fill="#99BDD7" cx="-449.082" cy="87.938" r="1.763"/>
	<circle fill="#99BDD7" cx="-444.51" cy="84.584" r="1.587"/>
	<circle fill="#99BDD7" cx="-441.326" cy="80.665" r="1.429"/>
	<circle fill="#99BDD7" cx="-481.844" cy="62.192" r="1.286"/>
	<circle fill="#99BDD7" cx="-451.178" cy="70.587" r="1.429"/>
	<circle fill="#99BDD7" cx="-464.178" cy="111.22" r="2.265"/>
	<circle fill="#99BDD7" cx="-457.182" cy="109.188" r="2.04"/>
	<circle fill="#99BDD7" cx="-451.611" cy="105.859" r="1.836"/>
	<circle fill="#99BDD7" cx="-447.439" cy="101.676" r="1.429"/>
	<circle fill="#99BDD7" cx="-476.707" cy="80.163" r="2.274"/>
	<circle fill="#99BDD7" cx="-480.367" cy="73.647" r="2.046"/>
	<circle fill="#99BDD7" cx="-481.999" cy="67.517" r="1.591"/>
	<circle fill="#99BDD7" cx="-515.98" cy="124.91" r="4.097"/>
	<circle fill="#99BDD7" cx="-524.164" cy="117.641" r="3.687"/>
	<circle fill="#99BDD7" cx="-531.954" cy="110.808" r="3.318"/>
	<circle fill="#99BDD7" cx="-535.078" cy="102.312" r="2.986"/>
	<circle fill="#99BDD7" cx="-533.346" cy="93.892" r="2.688"/>
	<circle fill="#99BDD7" cx="-533.008" cy="85.875" r="2.419"/>
	<circle fill="#99BDD7" cx="-535.875" cy="79.207" r="2.177"/>
	<circle fill="#99BDD7" cx="-540.919" cy="74.702" r="1.959"/>
	<circle fill="#99BDD7" cx="-544.109" cy="69.623" r="1.763"/>
	<circle fill="#99BDD7" cx="-542.773" cy="64.112" r="1.588"/>
	<circle fill="#99BDD7" cx="-540.383" cy="59.664" r="1.286"/>
	<circle fill="#99BDD7" cx="-541.621" cy="92.68" r="2.517"/>
	<circle fill="#99BDD7" cx="-548.966" cy="89.349" r="2.265"/>
	<circle fill="#99BDD7" cx="-552.235" cy="82.838" r="2.04"/>
	<circle fill="#99BDD7" cx="-553.585" cy="76.49" r="1.836"/>
	<circle fill="#99BDD7" cx="-555.453" cy="87.938" r="1.763"/>
	<circle fill="#99BDD7" cx="-560.025" cy="84.584" r="1.587"/>
	<circle fill="#99BDD7" cx="-563.209" cy="80.665" r="1.429"/>
	<circle fill="#99BDD7" cx="-522.691" cy="62.192" r="1.286"/>
	<circle fill="#99BDD7" cx="-553.357" cy="70.587" r="1.429"/>
	<circle fill="#99BDD7" cx="-540.357" cy="111.22" r="2.265"/>
	<circle fill="#99BDD7" cx="-547.354" cy="109.188" r="2.04"/>
	<circle fill="#99BDD7" cx="-552.924" cy="105.859" r="1.836"/>
	<circle fill="#99BDD7" cx="-557.096" cy="101.676" r="1.429"/>
	<circle fill="#99BDD7" cx="-527.829" cy="80.163" r="2.274"/>
	<circle fill="#99BDD7" cx="-524.168" cy="73.647" r="2.046"/>
	<circle fill="#99BDD7" cx="-522.537" cy="67.517" r="1.591"/>
	<g>
		<path fill="#FFFFFF" d="M-536.154,171.465v10.849c0,8.188-7.823,11.734-14.029,11.734h-11.683c-1.199,0-1.513-0.573-1.513-1.513
			v-31.293c0-0.938,0.313-1.512,1.513-1.512h11.683C-543.978,159.73-536.154,163.329-536.154,171.465z M-544.343,172.195
			c0-3.286-2.398-5.216-5.841-5.216h-5.007v19.819h5.007c3.442,0,5.841-1.878,5.841-5.216V172.195z"/>
		<path fill="#FFFFFF" d="M-504.136,188.259v4.276c0,0.939-0.313,1.513-1.513,1.513h-23.365c-1.2,0-1.513-0.573-1.513-1.513v-31.293
			c0-0.938,0.312-1.512,1.513-1.512h22.479c1.199,0,1.513,0.573,1.513,1.512v4.329c0,0.938-0.313,1.513-1.513,1.513h-15.751v5.685
			h13.978c1.199,0,1.513,0.574,1.513,1.513v4.068c0,0.938-0.313,1.512-1.513,1.512h-13.978v6.885h16.638
			C-504.449,186.746-504.136,187.32-504.136,188.259z"/>
		<path fill="#FFFFFF" d="M-472.482,188.259v4.276c0,0.939-0.313,1.513-1.513,1.513h-23.365c-1.199,0-1.513-0.573-1.513-1.513
			v-31.293c0-0.938,0.313-1.512,1.513-1.512h22.479c1.199,0,1.513,0.573,1.513,1.512v4.329c0,0.938-0.313,1.513-1.513,1.513h-15.751
			v5.685h13.978c1.199,0,1.513,0.574,1.513,1.513v4.068c0,0.938-0.313,1.512-1.513,1.512h-13.978v6.885h16.638
			C-472.796,186.746-472.482,187.32-472.482,188.259z"/>
		<path fill="#FFFFFF" d="M-439.891,194.048h-6.154c-1.252,0-1.878-0.47-2.607-1.564l-5.633-8.397
			c-0.47-0.625-0.574-1.199-0.574-2.659v-4.173c0-0.938,0.313-1.513,1.513-1.513h1.043c2.556,0,4.955-1.772,4.955-4.224
			c0-2.713-2.086-4.434-4.799-4.434h-6.937v25.451c0,1.2-0.573,1.513-1.512,1.513h-5.164c-0.938,0-1.46-0.312-1.46-1.513v-31.24
			c0-0.938,0.261-1.513,1.46-1.513h13.144c5.685,0,8.188,1.147,10.379,3.338c1.93,1.878,3.024,4.851,3.024,8.188
			c0,5.477-4.016,9.283-7.249,10.379l7.354,10.691C-438.639,193.109-438.899,194.048-439.891,194.048z"/>
	</g>
</g>
<g>
	<path d="M245.531,132.871c0,57.318-46.47,103.799-103.799,103.799c-57.317,0-103.799-46.48-103.799-103.799
		S84.415,29.072,141.732,29.072C199.062,29.072,245.531,75.553,245.531,132.871z"/>
	<circle fill="#FFFFFF" cx="149.278" cy="135.188" r="4.552"/>
	<circle fill="#969696" cx="155.445" cy="124.91" r="4.097"/>
	<circle fill="#969696" cx="163.628" cy="117.641" r="3.687"/>
	<circle fill="#969696" cx="171.419" cy="110.808" r="3.318"/>
	<circle fill="#969696" cx="174.543" cy="102.312" r="2.986"/>
	<circle fill="#969696" cx="172.811" cy="93.892" r="2.688"/>
	<circle fill="#969696" cx="172.473" cy="85.875" r="2.419"/>
	<circle fill="#969696" cx="175.34" cy="79.207" r="2.177"/>
	<circle fill="#969696" cx="180.384" cy="74.702" r="1.959"/>
	<circle fill="#969696" cx="183.574" cy="69.623" r="1.763"/>
	<circle fill="#969696" cx="182.238" cy="64.112" r="1.588"/>
	<circle fill="#969696" cx="179.848" cy="59.664" r="1.286"/>
	<circle fill="#FFFFFF" cx="134.187" cy="135.188" r="4.552"/>
	<circle fill="#FFFFFF" cx="141.543" cy="146.553" r="4.552"/>
	<circle fill="#969696" cx="181.085" cy="92.68" r="2.517"/>
	<circle fill="#969696" cx="188.431" cy="89.349" r="2.265"/>
	<circle fill="#969696" cx="191.7" cy="82.838" r="2.04"/>
	<circle fill="#969696" cx="193.05" cy="76.49" r="1.836"/>
	<circle fill="#969696" cx="194.918" cy="87.938" r="1.763"/>
	<circle fill="#969696" cx="199.49" cy="84.584" r="1.587"/>
	<circle fill="#969696" cx="202.674" cy="80.665" r="1.429"/>
	<circle fill="#969696" cx="162.156" cy="62.192" r="1.286"/>
	<circle fill="#969696" cx="192.822" cy="70.587" r="1.429"/>
	<circle fill="#969696" cx="179.822" cy="111.22" r="2.265"/>
	<circle fill="#969696" cx="186.818" cy="109.188" r="2.04"/>
	<circle fill="#969696" cx="192.389" cy="105.859" r="1.836"/>
	<circle fill="#969696" cx="196.561" cy="101.676" r="1.429"/>
	<circle fill="#969696" cx="167.293" cy="80.163" r="2.274"/>
	<circle fill="#969696" cx="163.633" cy="73.647" r="2.046"/>
	<circle fill="#969696" cx="162.001" cy="67.517" r="1.591"/>
	<circle fill="#969696" cx="128.02" cy="124.91" r="4.097"/>
	<circle fill="#969696" cx="119.836" cy="117.641" r="3.687"/>
	<circle fill="#969696" cx="112.046" cy="110.808" r="3.318"/>
	<circle fill="#969696" cx="108.922" cy="102.312" r="2.986"/>
	<circle fill="#969696" cx="110.654" cy="93.892" r="2.688"/>
	<circle fill="#969696" cx="110.992" cy="85.875" r="2.419"/>
	<circle fill="#969696" cx="108.125" cy="79.207" r="2.177"/>
	<circle fill="#969696" cx="103.081" cy="74.702" r="1.959"/>
	<circle fill="#969696" cx="99.891" cy="69.623" r="1.763"/>
	<circle fill="#969696" cx="101.227" cy="64.112" r="1.588"/>
	<circle fill="#969696" cx="103.617" cy="59.664" r="1.286"/>
	<circle fill="#969696" cx="102.379" cy="92.68" r="2.517"/>
	<circle fill="#969696" cx="95.034" cy="89.349" r="2.265"/>
	<circle fill="#969696" cx="91.765" cy="82.838" r="2.04"/>
	<circle fill="#969696" cx="90.415" cy="76.49" r="1.836"/>
	<circle fill="#969696" cx="88.547" cy="87.938" r="1.763"/>
	<circle fill="#969696" cx="83.975" cy="84.584" r="1.587"/>
	<circle fill="#969696" cx="80.791" cy="80.665" r="1.429"/>
	<circle fill="#969696" cx="121.309" cy="62.192" r="1.286"/>
	<circle fill="#969696" cx="90.643" cy="70.587" r="1.429"/>
	<circle fill="#969696" cx="103.643" cy="111.22" r="2.265"/>
	<circle fill="#969696" cx="96.646" cy="109.188" r="2.04"/>
	<circle fill="#969696" cx="91.076" cy="105.859" r="1.836"/>
	<circle fill="#969696" cx="86.904" cy="101.676" r="1.429"/>
	<circle fill="#969696" cx="116.171" cy="80.163" r="2.274"/>
	<circle fill="#969696" cx="119.832" cy="73.647" r="2.046"/>
	<circle fill="#969696" cx="121.463" cy="67.517" r="1.591"/>
	<g>
		<path fill="#FFFFFF" d="M107.846,171.465v10.849c0,8.188-7.823,11.734-14.029,11.734H82.134c-1.199,0-1.513-0.573-1.513-1.513
			v-31.293c0-0.938,0.313-1.512,1.513-1.512h11.683C100.022,159.73,107.846,163.329,107.846,171.465z M99.657,172.195
			c0-3.286-2.398-5.216-5.841-5.216H88.81v19.819h5.007c3.442,0,5.841-1.878,5.841-5.216V172.195z"/>
		<path fill="#FFFFFF" d="M139.864,188.259v4.276c0,0.939-0.313,1.513-1.513,1.513h-23.365c-1.2,0-1.513-0.573-1.513-1.513v-31.293
			c0-0.938,0.312-1.512,1.513-1.512h22.479c1.199,0,1.513,0.573,1.513,1.512v4.329c0,0.938-0.313,1.513-1.513,1.513h-15.751v5.685
			h13.978c1.199,0,1.513,0.574,1.513,1.513v4.068c0,0.938-0.313,1.512-1.513,1.512h-13.978v6.885h16.638
			C139.551,186.746,139.864,187.32,139.864,188.259z"/>
		<path fill="#FFFFFF" d="M171.518,188.259v4.276c0,0.939-0.313,1.513-1.513,1.513H146.64c-1.199,0-1.513-0.573-1.513-1.513v-31.293
			c0-0.938,0.313-1.512,1.513-1.512h22.479c1.199,0,1.513,0.573,1.513,1.512v4.329c0,0.938-0.313,1.513-1.513,1.513h-15.751v5.685
			h13.978c1.199,0,1.513,0.574,1.513,1.513v4.068c0,0.938-0.313,1.512-1.513,1.512h-13.978v6.885h16.638
			C171.204,186.746,171.518,187.32,171.518,188.259z"/>
		<path fill="#FFFFFF" d="M204.109,194.048h-6.154c-1.252,0-1.878-0.47-2.607-1.564l-5.633-8.397
			c-0.47-0.625-0.574-1.199-0.574-2.659v-4.173c0-0.938,0.313-1.513,1.513-1.513h1.043c2.556,0,4.955-1.772,4.955-4.224
			c0-2.713-2.086-4.434-4.799-4.434h-6.937v25.451c0,1.2-0.573,1.513-1.512,1.513h-5.164c-0.938,0-1.46-0.312-1.46-1.513v-31.24
			c0-0.938,0.261-1.513,1.46-1.513h13.144c5.685,0,8.188,1.147,10.379,3.338c1.93,1.878,3.024,4.851,3.024,8.188
			c0,5.477-4.016,9.283-7.249,10.379l7.354,10.691C205.361,193.109,205.101,194.048,204.109,194.048z"/>
	</g>
</g>
<g>
	<circle fill="#005A9B" cx="-171.896" cy="135.188" r="4.553"/>
	<circle fill="#8CB5D2" cx="-165.729" cy="124.91" r="4.097"/>
	<circle fill="#8CB5D2" cx="-157.546" cy="117.641" r="3.687"/>
	<circle fill="#8CB5D2" cx="-149.756" cy="110.808" r="3.318"/>
	<circle fill="#8CB5D2" cx="-146.631" cy="102.312" r="2.986"/>
	<circle fill="#8CB5D2" cx="-148.363" cy="93.892" r="2.688"/>
	<circle fill="#8CB5D2" cx="-148.701" cy="85.875" r="2.42"/>
	<circle fill="#8CB5D2" cx="-145.834" cy="79.207" r="2.178"/>
	<circle fill="#8CB5D2" cx="-140.79" cy="74.702" r="1.96"/>
	<circle fill="#8CB5D2" cx="-137.601" cy="69.623" r="1.763"/>
	<circle fill="#8CB5D2" cx="-138.936" cy="64.112" r="1.588"/>
	<circle fill="#8CB5D2" cx="-141.327" cy="59.664" r="1.286"/>
	<circle fill="#005A9B" cx="-186.987" cy="135.188" r="4.552"/>
	<circle fill="#005A9B" cx="-179.631" cy="146.553" r="4.553"/>
	<circle fill="#8CB5D2" cx="-140.089" cy="92.68" r="2.518"/>
	<circle fill="#8CB5D2" cx="-132.744" cy="89.349" r="2.265"/>
	<circle fill="#8CB5D2" cx="-129.475" cy="82.838" r="2.04"/>
	<circle fill="#8CB5D2" cx="-128.125" cy="76.49" r="1.836"/>
	<circle fill="#8CB5D2" cx="-126.257" cy="87.938" r="1.763"/>
	<path fill="#8CB5D2" d="M-121.072,86.049c-0.811,0.338-1.74-0.046-2.078-0.854c-0.338-0.81,0.047-1.74,0.855-2.076
		c0.807-0.338,1.738,0.045,2.076,0.854C-119.883,84.78-120.264,85.711-121.072,86.049z"/>
	<circle fill="#8CB5D2" cx="-118.5" cy="80.665" r="1.428"/>
	<circle fill="#8CB5D2" cx="-159.019" cy="62.192" r="1.286"/>
	<circle fill="#8CB5D2" cx="-128.353" cy="70.587" r="1.429"/>
	<circle fill="#8CB5D2" cx="-141.353" cy="111.22" r="2.266"/>
	<circle fill="#8CB5D2" cx="-134.356" cy="109.188" r="2.04"/>
	<path fill="#8CB5D2" d="M-128.703,107.693c-1.012,0.046-1.871-0.737-1.918-1.752c-0.045-1.014,0.738-1.872,1.754-1.917
		c1.01-0.047,1.869,0.737,1.916,1.751C-126.906,106.789-127.689,107.648-128.703,107.693z"/>
	<circle fill="#8CB5D2" cx="-124.614" cy="101.676" r="1.429"/>
	<circle fill="#8CB5D2" cx="-153.881" cy="80.163" r="2.274"/>
	<circle fill="#8CB5D2" cx="-157.541" cy="73.647" r="2.046"/>
	<path fill="#8CB5D2" d="M-159.381,69.095c0.871,0.116,1.67-0.495,1.787-1.369c0.115-0.872-0.498-1.672-1.371-1.786
		c-0.869-0.115-1.67,0.495-1.787,1.368C-160.865,68.181-160.252,68.98-159.381,69.095z"/>
	<circle fill="#8CB5D2" cx="-193.154" cy="124.91" r="4.098"/>
	<circle fill="#8CB5D2" cx="-201.338" cy="117.641" r="3.688"/>
	<circle fill="#8CB5D2" cx="-209.129" cy="110.808" r="3.318"/>
	<circle fill="#8CB5D2" cx="-212.252" cy="102.312" r="2.986"/>
	<circle fill="#8CB5D2" cx="-210.521" cy="93.892" r="2.688"/>
	<circle fill="#8CB5D2" cx="-210.183" cy="85.875" r="2.419"/>
	<circle fill="#8CB5D2" cx="-213.05" cy="79.207" r="2.177"/>
	<circle fill="#8CB5D2" cx="-218.094" cy="74.702" r="1.959"/>
	<circle fill="#8CB5D2" cx="-221.283" cy="69.623" r="1.764"/>
	<circle fill="#8CB5D2" cx="-219.947" cy="64.112" r="1.588"/>
	<circle fill="#8CB5D2" cx="-217.558" cy="59.664" r="1.286"/>
	<circle fill="#8CB5D2" cx="-218.795" cy="92.68" r="2.517"/>
	<circle fill="#8CB5D2" cx="-226.141" cy="89.349" r="2.265"/>
	<circle fill="#8CB5D2" cx="-229.41" cy="82.838" r="2.04"/>
	<path fill="#8CB5D2" d="M-232.16,77.678c0.654,0.773,1.812,0.869,2.588,0.213c0.773-0.656,0.871-1.813,0.213-2.588
		c-0.652-0.772-1.811-0.869-2.586-0.213C-232.719,75.746-232.816,76.904-232.16,77.678z"/>
	<circle fill="#8CB5D2" cx="-232.628" cy="87.938" r="1.763"/>
	<circle fill="#8CB5D2" cx="-237.199" cy="84.584" r="1.587"/>
	<circle fill="#8CB5D2" cx="-240.384" cy="80.665" r="1.429"/>
	<circle fill="#8CB5D2" cx="-199.865" cy="62.192" r="1.286"/>
	<circle fill="#8CB5D2" cx="-230.531" cy="70.587" r="1.429"/>
	<circle fill="#8CB5D2" cx="-217.531" cy="111.22" r="2.265"/>
	<path fill="#8CB5D2" d="M-224.621,111.226c1.127,0.05,2.08-0.823,2.133-1.947c0.051-1.125-0.822-2.079-1.947-2.129
		c-1.123-0.052-2.078,0.819-2.129,1.945C-226.617,110.218-225.746,111.174-224.621,111.226z"/>
	<circle fill="#8CB5D2" cx="-230.098" cy="105.859" r="1.836"/>
	<circle fill="#8CB5D2" cx="-234.271" cy="101.676" r="1.429"/>
	<path fill="#8CB5D2" d="M-203.711,82.033c-1.033,0.713-2.451,0.452-3.162-0.579c-0.717-1.033-0.455-2.448,0.578-3.162
		c1.031-0.712,2.447-0.454,3.162,0.579C-202.422,79.902-202.678,81.319-203.711,82.033z"/>
	<path fill="#8CB5D2" d="M-200.182,75.331c-0.928,0.641-2.201,0.408-2.844-0.521c-0.643-0.932-0.41-2.205,0.521-2.847
		c0.928-0.642,2.201-0.41,2.846,0.521C-199.018,73.415-199.248,74.688-200.182,75.331z"/>
	<path fill="#8CB5D2" d="M-199.504,69.095c-0.869,0.116-1.67-0.495-1.785-1.369c-0.115-0.872,0.496-1.672,1.371-1.786
		c0.869-0.115,1.67,0.495,1.785,1.368S-198.631,68.98-199.504,69.095z"/>
	<g>
		<path fill="#005A9B" d="M-213.328,171.465v10.849c0,8.188-7.824,11.734-14.029,11.734h-11.684c-1.199,0-1.512-0.573-1.512-1.513
			v-31.293c0-0.938,0.312-1.512,1.512-1.512h11.684C-221.152,159.73-213.328,163.329-213.328,171.465z M-221.518,172.195
			c0-3.286-2.398-5.216-5.84-5.216h-5.008v19.819h5.008c3.441,0,5.84-1.878,5.84-5.216V172.195z"/>
		<path fill="#005A9B" d="M-181.311,188.259v4.276c0,0.939-0.312,1.513-1.512,1.513h-23.365c-1.201,0-1.514-0.573-1.514-1.513
			v-31.293c0-0.938,0.312-1.512,1.514-1.512h22.479c1.199,0,1.512,0.573,1.512,1.512v4.329c0,0.938-0.312,1.513-1.512,1.513h-15.752
			v5.685h13.979c1.199,0,1.512,0.574,1.512,1.513v4.068c0,0.938-0.312,1.512-1.512,1.512h-13.979v6.885h16.639
			C-181.623,186.746-181.311,187.32-181.311,188.259z"/>
		<path fill="#005A9B" d="M-149.656,188.259v4.276c0,0.939-0.314,1.513-1.514,1.513h-23.365c-1.199,0-1.512-0.573-1.512-1.513
			v-31.293c0-0.938,0.312-1.512,1.512-1.512h22.479c1.199,0,1.514,0.573,1.514,1.512v4.329c0,0.938-0.314,1.513-1.514,1.513h-15.75
			v5.685h13.977c1.199,0,1.514,0.574,1.514,1.513v4.068c0,0.938-0.314,1.512-1.514,1.512h-13.977v6.885h16.637
			C-149.971,186.746-149.656,187.32-149.656,188.259z"/>
		<path fill="#005A9B" d="M-117.064,194.048h-6.154c-1.252,0-1.879-0.47-2.607-1.564l-5.633-8.397
			c-0.471-0.625-0.574-1.199-0.574-2.659v-4.173c0-0.938,0.312-1.513,1.512-1.513h1.043c2.557,0,4.955-1.772,4.955-4.224
			c0-2.713-2.086-4.434-4.799-4.434h-6.936v25.451c0,1.2-0.574,1.513-1.512,1.513h-5.164c-0.939,0-1.461-0.312-1.461-1.513v-31.24
			c0-0.938,0.262-1.513,1.461-1.513h13.143c5.686,0,8.189,1.147,10.379,3.338c1.93,1.878,3.025,4.851,3.025,8.188
			c0,5.477-4.016,9.283-7.25,10.379l7.354,10.691C-115.812,193.109-116.074,194.048-117.064,194.048z"/>
	</g>
</g>
<g>
	<circle cx="466.104" cy="135.188" r="4.553"/>
	<circle fill="#969696" cx="472.271" cy="124.91" r="4.097"/>
	<circle fill="#969696" cx="480.454" cy="117.641" r="3.687"/>
	<circle fill="#969696" cx="488.244" cy="110.808" r="3.318"/>
	<circle fill="#969696" cx="491.369" cy="102.312" r="2.986"/>
	<circle fill="#969696" cx="489.637" cy="93.892" r="2.688"/>
	<circle fill="#969696" cx="489.299" cy="85.875" r="2.42"/>
	<circle fill="#969696" cx="492.166" cy="79.207" r="2.178"/>
	<circle fill="#969696" cx="497.21" cy="74.702" r="1.96"/>
	<circle fill="#969696" cx="500.399" cy="69.623" r="1.763"/>
	<circle fill="#969696" cx="499.064" cy="64.112" r="1.588"/>
	<circle fill="#969696" cx="496.673" cy="59.664" r="1.286"/>
	<circle cx="451.013" cy="135.188" r="4.552"/>
	<circle cx="458.369" cy="146.553" r="4.553"/>
	<circle fill="#969696" cx="497.911" cy="92.68" r="2.518"/>
	<circle fill="#969696" cx="505.256" cy="89.349" r="2.265"/>
	<circle fill="#969696" cx="508.525" cy="82.838" r="2.04"/>
	<circle fill="#969696" cx="509.875" cy="76.49" r="1.836"/>
	<circle fill="#969696" cx="511.743" cy="87.938" r="1.763"/>
	<path fill="#969696" d="M516.928,86.049c-0.811,0.338-1.74-0.046-2.078-0.854c-0.338-0.81,0.047-1.74,0.855-2.076
		c0.807-0.338,1.738,0.045,2.076,0.854C518.117,84.78,517.736,85.711,516.928,86.049z"/>
	<circle fill="#969696" cx="519.5" cy="80.665" r="1.428"/>
	<circle fill="#969696" cx="478.981" cy="62.192" r="1.286"/>
	<circle fill="#969696" cx="509.647" cy="70.587" r="1.429"/>
	<circle fill="#969696" cx="496.647" cy="111.22" r="2.266"/>
	<circle fill="#969696" cx="503.644" cy="109.188" r="2.04"/>
	<path fill="#969696" d="M509.297,107.693c-1.012,0.046-1.871-0.737-1.918-1.752c-0.045-1.014,0.738-1.872,1.754-1.917
		c1.01-0.047,1.869,0.737,1.916,1.751C511.094,106.789,510.311,107.648,509.297,107.693z"/>
	<circle fill="#969696" cx="513.386" cy="101.676" r="1.429"/>
	<circle fill="#969696" cx="484.119" cy="80.163" r="2.274"/>
	<circle fill="#969696" cx="480.459" cy="73.647" r="2.046"/>
	<path fill="#969696" d="M478.619,69.095c0.871,0.116,1.67-0.495,1.787-1.369c0.115-0.872-0.498-1.672-1.371-1.786
		c-0.869-0.115-1.67,0.495-1.787,1.368C477.135,68.181,477.748,68.98,478.619,69.095z"/>
	<circle fill="#969696" cx="444.846" cy="124.91" r="4.098"/>
	<circle fill="#969696" cx="436.662" cy="117.641" r="3.688"/>
	<circle fill="#969696" cx="428.871" cy="110.808" r="3.318"/>
	<circle fill="#969696" cx="425.748" cy="102.312" r="2.986"/>
	<circle fill="#969696" cx="427.479" cy="93.892" r="2.688"/>
	<circle fill="#969696" cx="427.817" cy="85.875" r="2.419"/>
	<circle fill="#969696" cx="424.95" cy="79.207" r="2.177"/>
	<circle fill="#969696" cx="419.906" cy="74.702" r="1.959"/>
	<circle fill="#969696" cx="416.717" cy="69.623" r="1.764"/>
	<circle fill="#969696" cx="418.053" cy="64.112" r="1.588"/>
	<circle fill="#969696" cx="420.442" cy="59.664" r="1.286"/>
	<circle fill="#969696" cx="419.205" cy="92.68" r="2.517"/>
	<circle fill="#969696" cx="411.859" cy="89.349" r="2.265"/>
	<circle fill="#969696" cx="408.59" cy="82.838" r="2.04"/>
	<path fill="#969696" d="M405.84,77.678c0.654,0.773,1.812,0.869,2.588,0.213c0.773-0.656,0.871-1.813,0.213-2.588
		c-0.652-0.772-1.811-0.869-2.586-0.213C405.281,75.746,405.184,76.904,405.84,77.678z"/>
	<circle fill="#969696" cx="405.372" cy="87.938" r="1.763"/>
	<circle fill="#969696" cx="400.801" cy="84.584" r="1.587"/>
	<circle fill="#969696" cx="397.616" cy="80.665" r="1.429"/>
	<circle fill="#969696" cx="438.135" cy="62.192" r="1.286"/>
	<circle fill="#969696" cx="407.469" cy="70.587" r="1.429"/>
	<circle fill="#969696" cx="420.469" cy="111.22" r="2.265"/>
	<path fill="#969696" d="M413.379,111.226c1.127,0.05,2.08-0.823,2.133-1.947c0.051-1.125-0.822-2.079-1.947-2.129
		c-1.123-0.052-2.078,0.819-2.129,1.945C411.383,110.218,412.254,111.174,413.379,111.226z"/>
	<circle fill="#969696" cx="407.902" cy="105.859" r="1.836"/>
	<circle fill="#969696" cx="403.729" cy="101.676" r="1.429"/>
	<path fill="#969696" d="M434.289,82.033c-1.033,0.713-2.451,0.452-3.162-0.579c-0.717-1.033-0.455-2.448,0.578-3.162
		c1.031-0.712,2.447-0.454,3.162,0.579C435.578,79.902,435.322,81.319,434.289,82.033z"/>
	<path fill="#969696" d="M437.818,75.331c-0.928,0.641-2.201,0.408-2.844-0.521c-0.643-0.932-0.41-2.205,0.521-2.847
		c0.928-0.642,2.201-0.41,2.846,0.521C438.982,73.415,438.752,74.688,437.818,75.331z"/>
	<path fill="#969696" d="M438.496,69.095c-0.869,0.116-1.67-0.495-1.785-1.369c-0.115-0.872,0.496-1.672,1.371-1.786
		c0.869-0.115,1.67,0.495,1.785,1.368S439.369,68.98,438.496,69.095z"/>
	<g>
		<path d="M424.672,171.465v10.849c0,8.188-7.824,11.734-14.029,11.734h-11.684c-1.199,0-1.512-0.573-1.512-1.513v-31.293
			c0-0.938,0.312-1.512,1.512-1.512h11.684C416.848,159.73,424.672,163.329,424.672,171.465z M416.482,172.195
			c0-3.286-2.398-5.216-5.84-5.216h-5.008v19.819h5.008c3.441,0,5.84-1.878,5.84-5.216V172.195z"/>
		<path d="M456.689,188.259v4.276c0,0.939-0.312,1.513-1.512,1.513h-23.365c-1.201,0-1.514-0.573-1.514-1.513v-31.293
			c0-0.938,0.312-1.512,1.514-1.512h22.479c1.199,0,1.512,0.573,1.512,1.512v4.329c0,0.938-0.312,1.513-1.512,1.513h-15.752v5.685
			h13.979c1.199,0,1.512,0.574,1.512,1.513v4.068c0,0.938-0.312,1.512-1.512,1.512h-13.979v6.885h16.639
			C456.377,186.746,456.689,187.32,456.689,188.259z"/>
		<path d="M488.344,188.259v4.276c0,0.939-0.314,1.513-1.514,1.513h-23.365c-1.199,0-1.512-0.573-1.512-1.513v-31.293
			c0-0.938,0.312-1.512,1.512-1.512h22.479c1.199,0,1.514,0.573,1.514,1.512v4.329c0,0.938-0.314,1.513-1.514,1.513h-15.75v5.685
			h13.977c1.199,0,1.514,0.574,1.514,1.513v4.068c0,0.938-0.314,1.512-1.514,1.512h-13.977v6.885h16.637
			C488.029,186.746,488.344,187.32,488.344,188.259z"/>
		<path d="M520.936,194.048h-6.154c-1.252,0-1.879-0.47-2.607-1.564l-5.633-8.397c-0.471-0.625-0.574-1.199-0.574-2.659v-4.173
			c0-0.938,0.312-1.513,1.512-1.513h1.043c2.557,0,4.955-1.772,4.955-4.224c0-2.713-2.086-4.434-4.799-4.434h-6.936v25.451
			c0,1.2-0.574,1.513-1.512,1.513h-5.164c-0.939,0-1.461-0.312-1.461-1.513v-31.24c0-0.938,0.262-1.513,1.461-1.513h13.143
			c5.686,0,8.189,1.147,10.379,3.338c1.93,1.878,3.025,4.851,3.025,8.188c0,5.477-4.016,9.283-7.25,10.379l7.354,10.691
			C522.188,193.109,521.926,194.048,520.936,194.048z"/>
	</g>
</g>
</svg>
