<?xml version="1.0" encoding="utf-8"?>
<!-- Generator: Adobe Illustrator 15.0.2, SVG Export Plug-In . SVG Version: 6.00 Build 0)  -->
<!DOCTYPE svg PUBLIC "-//W3C//DTD SVG 1.1//EN" "http://www.w3.org/Graphics/SVG/1.1/DTD/svg11.dtd">
<svg version="1.1" id="Ebene_1" xmlns="http://www.w3.org/2000/svg" xmlns:xlink="http://www.w3.org/1999/xlink" x="0px" y="0px"
	 width="283.465px" height="283.465px" viewBox="0 0 283.465 283.465" enable-background="new 0 0 283.465 283.465"
	 xml:space="preserve">
<g>
	<path fill="#005A9B" d="M-715.802,132.871c0,57.318-46.47,103.799-103.799,103.799c-57.317,0-103.799-46.48-103.799-103.799
		s46.481-103.799,103.799-103.799C-762.271,29.072-715.802,75.553-715.802,132.871z"/>
	<circle fill="#FFFFFF" cx="-812.055" cy="135.188" r="4.552"/>
	<circle fill="#99BDD7" cx="-805.888" cy="124.91" r="4.097"/>
	<circle fill="#99BDD7" cx="-797.705" cy="117.641" r="3.687"/>
	<circle fill="#99BDD7" cx="-789.914" cy="110.808" r="3.318"/>
	<circle fill="#99BDD7" cx="-786.79" cy="102.312" r="2.986"/>
	<circle fill="#99BDD7" cx="-788.522" cy="93.892" r="2.688"/>
	<circle fill="#99BDD7" cx="-788.86" cy="85.875" r="2.419"/>
	<circle fill="#99BDD7" cx="-785.993" cy="79.207" r="2.177"/>
	<circle fill="#99BDD7" cx="-780.949" cy="74.702" r="1.959"/>
	<circle fill="#99BDD7" cx="-777.759" cy="69.623" r="1.763"/>
	<circle fill="#99BDD7" cx="-779.095" cy="64.112" r="1.588"/>
	<circle fill="#99BDD7" cx="-781.485" cy="59.664" r="1.286"/>
	<circle fill="#FFFFFF" cx="-827.146" cy="135.188" r="4.552"/>
	<circle fill="#FFFFFF" cx="-819.79" cy="146.553" r="4.552"/>
	<circle fill="#99BDD7" cx="-780.248" cy="92.68" r="2.517"/>
	<circle fill="#99BDD7" cx="-772.902" cy="89.349" r="2.265"/>
	<circle fill="#99BDD7" cx="-769.633" cy="82.838" r="2.04"/>
	<circle fill="#99BDD7" cx="-768.283" cy="76.49" r="1.836"/>
	<circle fill="#99BDD7" cx="-766.415" cy="87.938" r="1.763"/>
	<circle fill="#99BDD7" cx="-761.843" cy="84.584" r="1.587"/>
	<circle fill="#99BDD7" cx="-758.659" cy="80.665" r="1.429"/>
	<circle fill="#99BDD7" cx="-799.177" cy="62.192" r="1.286"/>
	<circle fill="#99BDD7" cx="-768.511" cy="70.587" r="1.429"/>
	<circle fill="#99BDD7" cx="-781.511" cy="111.22" r="2.265"/>
	<circle fill="#99BDD7" cx="-774.515" cy="109.188" r="2.04"/>
	<circle fill="#99BDD7" cx="-768.944" cy="105.859" r="1.836"/>
	<circle fill="#99BDD7" cx="-764.772" cy="101.676" r="1.429"/>
	<circle fill="#99BDD7" cx="-794.04" cy="80.163" r="2.274"/>
	<circle fill="#99BDD7" cx="-797.7" cy="73.647" r="2.046"/>
	<circle fill="#99BDD7" cx="-799.332" cy="67.517" r="1.591"/>
	<circle fill="#99BDD7" cx="-833.313" cy="124.91" r="4.097"/>
	<circle fill="#99BDD7" cx="-841.497" cy="117.641" r="3.687"/>
	<circle fill="#99BDD7" cx="-849.287" cy="110.808" r="3.318"/>
	<circle fill="#99BDD7" cx="-852.411" cy="102.312" r="2.986"/>
	<circle fill="#99BDD7" cx="-850.679" cy="93.892" r="2.688"/>
	<circle fill="#99BDD7" cx="-850.341" cy="85.875" r="2.419"/>
	<circle fill="#99BDD7" cx="-853.208" cy="79.207" r="2.177"/>
	<circle fill="#99BDD7" cx="-858.252" cy="74.702" r="1.959"/>
	<circle fill="#99BDD7" cx="-861.442" cy="69.623" r="1.763"/>
	<circle fill="#99BDD7" cx="-860.106" cy="64.112" r="1.588"/>
	<circle fill="#99BDD7" cx="-857.716" cy="59.664" r="1.286"/>
	<circle fill="#99BDD7" cx="-858.954" cy="92.68" r="2.517"/>
	<circle fill="#99BDD7" cx="-866.299" cy="89.349" r="2.265"/>
	<circle fill="#99BDD7" cx="-869.568" cy="82.838" r="2.04"/>
	<circle fill="#99BDD7" cx="-870.918" cy="76.49" r="1.836"/>
	<circle fill="#99BDD7" cx="-872.786" cy="87.938" r="1.763"/>
	<circle fill="#99BDD7" cx="-877.358" cy="84.584" r="1.587"/>
	<circle fill="#99BDD7" cx="-880.542" cy="80.665" r="1.429"/>
	<circle fill="#99BDD7" cx="-840.024" cy="62.192" r="1.286"/>
	<circle fill="#99BDD7" cx="-870.69" cy="70.587" r="1.429"/>
	<circle fill="#99BDD7" cx="-857.69" cy="111.22" r="2.265"/>
	<circle fill="#99BDD7" cx="-864.687" cy="109.188" r="2.04"/>
	<circle fill="#99BDD7" cx="-870.257" cy="105.859" r="1.836"/>
	<circle fill="#99BDD7" cx="-874.429" cy="101.676" r="1.429"/>
	<circle fill="#99BDD7" cx="-845.162" cy="80.163" r="2.274"/>
	<circle fill="#99BDD7" cx="-841.501" cy="73.647" r="2.046"/>
	<circle fill="#99BDD7" cx="-839.87" cy="67.517" r="1.591"/>
	<g>
		<path fill="#FFFFFF" d="M-853.487,171.465v10.849c0,8.188-7.823,11.734-14.029,11.734h-11.683c-1.199,0-1.513-0.573-1.513-1.513
			v-31.293c0-0.938,0.313-1.512,1.513-1.512h11.683C-861.311,159.73-853.487,163.329-853.487,171.465z M-861.676,172.195
			c0-3.286-2.398-5.216-5.841-5.216h-5.007v19.819h5.007c3.442,0,5.841-1.878,5.841-5.216V172.195z"/>
		<path fill="#FFFFFF" d="M-821.469,188.259v4.276c0,0.939-0.313,1.513-1.513,1.513h-23.365c-1.2,0-1.513-0.573-1.513-1.513v-31.293
			c0-0.938,0.312-1.512,1.513-1.512h22.479c1.199,0,1.513,0.573,1.513,1.512v4.329c0,0.938-0.313,1.513-1.513,1.513h-15.751v5.685
			h13.978c1.199,0,1.513,0.574,1.513,1.513v4.068c0,0.938-0.313,1.512-1.513,1.512h-13.978v6.885h16.638
			C-821.782,186.746-821.469,187.32-821.469,188.259z"/>
		<path fill="#FFFFFF" d="M-789.815,188.259v4.276c0,0.939-0.313,1.513-1.513,1.513h-23.365c-1.199,0-1.513-0.573-1.513-1.513
			v-31.293c0-0.938,0.313-1.512,1.513-1.512h22.479c1.199,0,1.513,0.573,1.513,1.512v4.329c0,0.938-0.313,1.513-1.513,1.513h-15.751
			v5.685h13.978c1.199,0,1.513,0.574,1.513,1.513v4.068c0,0.938-0.313,1.512-1.513,1.512h-13.978v6.885h16.638
			C-790.129,186.746-789.815,187.32-789.815,188.259z"/>
		<path fill="#FFFFFF" d="M-757.224,194.048h-6.154c-1.252,0-1.878-0.47-2.607-1.564l-5.633-8.397
			c-0.47-0.625-0.574-1.199-0.574-2.659v-4.173c0-0.938,0.313-1.513,1.513-1.513h1.043c2.556,0,4.955-1.772,4.955-4.224
			c0-2.713-2.086-4.434-4.799-4.434h-6.937v25.451c0,1.2-0.573,1.513-1.512,1.513h-5.164c-0.938,0-1.46-0.312-1.46-1.513v-31.24
			c0-0.938,0.261-1.513,1.46-1.513h13.144c5.685,0,8.188,1.147,10.379,3.338c1.93,1.878,3.024,4.851,3.024,8.188
			c0,5.477-4.016,9.283-7.249,10.379l7.354,10.691C-755.972,193.109-756.232,194.048-757.224,194.048z"/>
	</g>
</g>
<g>
	<path d="M-71.802,132.871c0,57.318-46.47,103.799-103.799,103.799c-57.317,0-103.799-46.48-103.799-103.799
		s46.481-103.799,103.799-103.799C-118.271,29.072-71.802,75.553-71.802,132.871z"/>
	<circle fill="#FFFFFF" cx="-168.055" cy="135.188" r="4.552"/>
	<circle fill="#969696" cx="-161.888" cy="124.91" r="4.097"/>
	<circle fill="#969696" cx="-153.705" cy="117.641" r="3.687"/>
	<circle fill="#969696" cx="-145.914" cy="110.808" r="3.318"/>
	<circle fill="#969696" cx="-142.79" cy="102.312" r="2.986"/>
	<circle fill="#969696" cx="-144.522" cy="93.892" r="2.688"/>
	<circle fill="#969696" cx="-144.86" cy="85.875" r="2.419"/>
	<circle fill="#969696" cx="-141.993" cy="79.207" r="2.177"/>
	<circle fill="#969696" cx="-136.949" cy="74.702" r="1.959"/>
	<circle fill="#969696" cx="-133.759" cy="69.623" r="1.763"/>
	<circle fill="#969696" cx="-135.095" cy="64.112" r="1.588"/>
	<circle fill="#969696" cx="-137.485" cy="59.664" r="1.286"/>
	<circle fill="#FFFFFF" cx="-183.146" cy="135.188" r="4.552"/>
	<circle fill="#FFFFFF" cx="-175.79" cy="146.553" r="4.552"/>
	<circle fill="#969696" cx="-136.248" cy="92.68" r="2.517"/>
	<circle fill="#969696" cx="-128.902" cy="89.349" r="2.265"/>
	<circle fill="#969696" cx="-125.633" cy="82.838" r="2.04"/>
	<circle fill="#969696" cx="-124.283" cy="76.49" r="1.836"/>
	<circle fill="#969696" cx="-122.415" cy="87.938" r="1.763"/>
	<circle fill="#969696" cx="-117.843" cy="84.584" r="1.587"/>
	<circle fill="#969696" cx="-114.659" cy="80.665" r="1.429"/>
	<circle fill="#969696" cx="-155.177" cy="62.192" r="1.286"/>
	<circle fill="#969696" cx="-124.511" cy="70.587" r="1.429"/>
	<circle fill="#969696" cx="-137.511" cy="111.22" r="2.265"/>
	<circle fill="#969696" cx="-130.515" cy="109.188" r="2.04"/>
	<circle fill="#969696" cx="-124.944" cy="105.859" r="1.836"/>
	<circle fill="#969696" cx="-120.772" cy="101.676" r="1.429"/>
	<circle fill="#969696" cx="-150.04" cy="80.163" r="2.274"/>
	<circle fill="#969696" cx="-153.7" cy="73.647" r="2.046"/>
	<circle fill="#969696" cx="-155.332" cy="67.517" r="1.591"/>
	<circle fill="#969696" cx="-189.313" cy="124.91" r="4.097"/>
	<circle fill="#969696" cx="-197.497" cy="117.641" r="3.687"/>
	<circle fill="#969696" cx="-205.287" cy="110.808" r="3.318"/>
	<circle fill="#969696" cx="-208.411" cy="102.312" r="2.986"/>
	<circle fill="#969696" cx="-206.679" cy="93.892" r="2.688"/>
	<circle fill="#969696" cx="-206.341" cy="85.875" r="2.419"/>
	<circle fill="#969696" cx="-209.208" cy="79.207" r="2.177"/>
	<circle fill="#969696" cx="-214.252" cy="74.702" r="1.959"/>
	<circle fill="#969696" cx="-217.442" cy="69.623" r="1.763"/>
	<circle fill="#969696" cx="-216.106" cy="64.112" r="1.588"/>
	<circle fill="#969696" cx="-213.716" cy="59.664" r="1.286"/>
	<circle fill="#969696" cx="-214.954" cy="92.68" r="2.517"/>
	<circle fill="#969696" cx="-222.299" cy="89.349" r="2.265"/>
	<circle fill="#969696" cx="-225.568" cy="82.838" r="2.04"/>
	<circle fill="#969696" cx="-226.918" cy="76.49" r="1.836"/>
	<circle fill="#969696" cx="-228.786" cy="87.938" r="1.763"/>
	<circle fill="#969696" cx="-233.358" cy="84.584" r="1.587"/>
	<circle fill="#969696" cx="-236.542" cy="80.665" r="1.429"/>
	<circle fill="#969696" cx="-196.024" cy="62.192" r="1.286"/>
	<circle fill="#969696" cx="-226.69" cy="70.587" r="1.429"/>
	<circle fill="#969696" cx="-213.69" cy="111.22" r="2.265"/>
	<circle fill="#969696" cx="-220.687" cy="109.188" r="2.04"/>
	<circle fill="#969696" cx="-226.257" cy="105.859" r="1.836"/>
	<circle fill="#969696" cx="-230.429" cy="101.676" r="1.429"/>
	<circle fill="#969696" cx="-201.162" cy="80.163" r="2.274"/>
	<circle fill="#969696" cx="-197.501" cy="73.647" r="2.046"/>
	<circle fill="#969696" cx="-195.87" cy="67.517" r="1.591"/>
	<g>
		<path fill="#FFFFFF" d="M-209.487,171.465v10.849c0,8.188-7.823,11.734-14.029,11.734h-11.683c-1.199,0-1.513-0.573-1.513-1.513
			v-31.293c0-0.938,0.313-1.512,1.513-1.512h11.683C-217.311,159.73-209.487,163.329-209.487,171.465z M-217.676,172.195
			c0-3.286-2.398-5.216-5.841-5.216h-5.007v19.819h5.007c3.442,0,5.841-1.878,5.841-5.216V172.195z"/>
		<path fill="#FFFFFF" d="M-177.469,188.259v4.276c0,0.939-0.313,1.513-1.513,1.513h-23.365c-1.2,0-1.513-0.573-1.513-1.513v-31.293
			c0-0.938,0.312-1.512,1.513-1.512h22.479c1.199,0,1.513,0.573,1.513,1.512v4.329c0,0.938-0.313,1.513-1.513,1.513h-15.751v5.685
			h13.978c1.199,0,1.513,0.574,1.513,1.513v4.068c0,0.938-0.313,1.512-1.513,1.512h-13.978v6.885h16.638
			C-177.782,186.746-177.469,187.32-177.469,188.259z"/>
		<path fill="#FFFFFF" d="M-145.815,188.259v4.276c0,0.939-0.313,1.513-1.513,1.513h-23.365c-1.199,0-1.513-0.573-1.513-1.513
			v-31.293c0-0.938,0.313-1.512,1.513-1.512h22.479c1.199,0,1.513,0.573,1.513,1.512v4.329c0,0.938-0.313,1.513-1.513,1.513h-15.751
			v5.685h13.978c1.199,0,1.513,0.574,1.513,1.513v4.068c0,0.938-0.313,1.512-1.513,1.512h-13.978v6.885h16.638
			C-146.129,186.746-145.815,187.32-145.815,188.259z"/>
		<path fill="#FFFFFF" d="M-113.224,194.048h-6.154c-1.252,0-1.878-0.47-2.607-1.564l-5.633-8.397
			c-0.47-0.625-0.574-1.199-0.574-2.659v-4.173c0-0.938,0.313-1.513,1.513-1.513h1.043c2.556,0,4.955-1.772,4.955-4.224
			c0-2.713-2.086-4.434-4.799-4.434h-6.937v25.451c0,1.2-0.573,1.513-1.512,1.513h-5.164c-0.938,0-1.46-0.312-1.46-1.513v-31.24
			c0-0.938,0.261-1.513,1.46-1.513h13.144c5.685,0,8.188,1.147,10.379,3.338c1.93,1.878,3.024,4.851,3.024,8.188
			c0,5.477-4.016,9.283-7.249,10.379l7.354,10.691C-111.972,193.109-112.232,194.048-113.224,194.048z"/>
	</g>
</g>
<g>
	<circle fill="#005A9B" cx="-489.229" cy="135.188" r="4.553"/>
	<circle fill="#8CB5D2" cx="-483.062" cy="124.91" r="4.097"/>
	<circle fill="#8CB5D2" cx="-474.879" cy="117.641" r="3.687"/>
	<circle fill="#8CB5D2" cx="-467.089" cy="110.808" r="3.318"/>
	<circle fill="#8CB5D2" cx="-463.964" cy="102.312" r="2.986"/>
	<circle fill="#8CB5D2" cx="-465.696" cy="93.892" r="2.688"/>
	<circle fill="#8CB5D2" cx="-466.034" cy="85.875" r="2.42"/>
	<circle fill="#8CB5D2" cx="-463.167" cy="79.207" r="2.178"/>
	<circle fill="#8CB5D2" cx="-458.123" cy="74.702" r="1.96"/>
	<circle fill="#8CB5D2" cx="-454.934" cy="69.623" r="1.763"/>
	<circle fill="#8CB5D2" cx="-456.269" cy="64.112" r="1.588"/>
	<circle fill="#8CB5D2" cx="-458.66" cy="59.664" r="1.286"/>
	<circle fill="#005A9B" cx="-504.32" cy="135.188" r="4.552"/>
	<circle fill="#005A9B" cx="-496.964" cy="146.553" r="4.553"/>
	<circle fill="#8CB5D2" cx="-457.422" cy="92.68" r="2.518"/>
	<circle fill="#8CB5D2" cx="-450.077" cy="89.349" r="2.265"/>
	<circle fill="#8CB5D2" cx="-446.808" cy="82.838" r="2.04"/>
	<circle fill="#8CB5D2" cx="-445.458" cy="76.49" r="1.836"/>
	<circle fill="#8CB5D2" cx="-443.59" cy="87.938" r="1.763"/>
	<path fill="#8CB5D2" d="M-438.405,86.049c-0.811,0.338-1.74-0.046-2.078-0.854c-0.338-0.81,0.047-1.74,0.855-2.076
		c0.807-0.338,1.738,0.045,2.076,0.854C-437.216,84.78-437.597,85.711-438.405,86.049z"/>
	<circle fill="#8CB5D2" cx="-435.833" cy="80.665" r="1.428"/>
	<circle fill="#8CB5D2" cx="-476.352" cy="62.192" r="1.286"/>
	<circle fill="#8CB5D2" cx="-445.686" cy="70.587" r="1.429"/>
	<circle fill="#8CB5D2" cx="-458.686" cy="111.22" r="2.266"/>
	<circle fill="#8CB5D2" cx="-451.689" cy="109.188" r="2.04"/>
	<path fill="#8CB5D2" d="M-446.036,107.693c-1.012,0.046-1.871-0.737-1.918-1.752c-0.045-1.014,0.738-1.872,1.754-1.917
		c1.01-0.047,1.869,0.737,1.916,1.751C-444.239,106.789-445.022,107.648-446.036,107.693z"/>
	<circle fill="#8CB5D2" cx="-441.947" cy="101.676" r="1.429"/>
	<circle fill="#8CB5D2" cx="-471.214" cy="80.163" r="2.274"/>
	<circle fill="#8CB5D2" cx="-474.874" cy="73.647" r="2.046"/>
	<path fill="#8CB5D2" d="M-476.714,69.095c0.871,0.116,1.67-0.495,1.787-1.369c0.115-0.872-0.498-1.672-1.371-1.786
		c-0.869-0.115-1.67,0.495-1.787,1.368C-478.198,68.181-477.585,68.98-476.714,69.095z"/>
	<circle fill="#8CB5D2" cx="-510.487" cy="124.91" r="4.098"/>
	<circle fill="#8CB5D2" cx="-518.671" cy="117.641" r="3.688"/>
	<circle fill="#8CB5D2" cx="-526.462" cy="110.808" r="3.318"/>
	<circle fill="#8CB5D2" cx="-529.585" cy="102.312" r="2.986"/>
	<circle fill="#8CB5D2" cx="-527.854" cy="93.892" r="2.688"/>
	<circle fill="#8CB5D2" cx="-527.516" cy="85.875" r="2.419"/>
	<circle fill="#8CB5D2" cx="-530.383" cy="79.207" r="2.177"/>
	<circle fill="#8CB5D2" cx="-535.427" cy="74.702" r="1.959"/>
	<circle fill="#8CB5D2" cx="-538.616" cy="69.623" r="1.764"/>
	<circle fill="#8CB5D2" cx="-537.28" cy="64.112" r="1.588"/>
	<circle fill="#8CB5D2" cx="-534.891" cy="59.664" r="1.286"/>
	<circle fill="#8CB5D2" cx="-536.128" cy="92.68" r="2.517"/>
	<circle fill="#8CB5D2" cx="-543.474" cy="89.349" r="2.265"/>
	<circle fill="#8CB5D2" cx="-546.743" cy="82.838" r="2.04"/>
	<path fill="#8CB5D2" d="M-549.493,77.678c0.654,0.773,1.812,0.869,2.588,0.213c0.773-0.656,0.871-1.813,0.213-2.588
		c-0.652-0.772-1.811-0.869-2.586-0.213C-550.052,75.746-550.149,76.904-549.493,77.678z"/>
	<circle fill="#8CB5D2" cx="-549.961" cy="87.938" r="1.763"/>
	<circle fill="#8CB5D2" cx="-554.532" cy="84.584" r="1.587"/>
	<circle fill="#8CB5D2" cx="-557.717" cy="80.665" r="1.429"/>
	<circle fill="#8CB5D2" cx="-517.198" cy="62.192" r="1.286"/>
	<circle fill="#8CB5D2" cx="-547.864" cy="70.587" r="1.429"/>
	<circle fill="#8CB5D2" cx="-534.864" cy="111.22" r="2.265"/>
	<path fill="#8CB5D2" d="M-541.954,111.226c1.127,0.05,2.08-0.823,2.133-1.947c0.051-1.125-0.822-2.079-1.947-2.129
		c-1.123-0.052-2.078,0.819-2.129,1.945C-543.95,110.218-543.079,111.174-541.954,111.226z"/>
	<circle fill="#8CB5D2" cx="-547.431" cy="105.859" r="1.836"/>
	<circle fill="#8CB5D2" cx="-551.604" cy="101.676" r="1.429"/>
	<path fill="#8CB5D2" d="M-521.044,82.033c-1.033,0.713-2.451,0.452-3.162-0.579c-0.717-1.033-0.455-2.448,0.578-3.162
		c1.031-0.712,2.447-0.454,3.162,0.579C-519.755,79.902-520.011,81.319-521.044,82.033z"/>
	<path fill="#8CB5D2" d="M-517.515,75.331c-0.928,0.641-2.201,0.408-2.844-0.521c-0.643-0.932-0.41-2.205,0.521-2.847
		c0.928-0.642,2.201-0.41,2.846,0.521C-516.351,73.415-516.581,74.688-517.515,75.331z"/>
	<path fill="#8CB5D2" d="M-516.837,69.095c-0.869,0.116-1.67-0.495-1.785-1.369c-0.115-0.872,0.496-1.672,1.371-1.786
		c0.869-0.115,1.67,0.495,1.785,1.368S-515.964,68.98-516.837,69.095z"/>
	<g>
		<path fill="#005A9B" d="M-530.661,171.465v10.849c0,8.188-7.824,11.734-14.029,11.734h-11.684c-1.199,0-1.512-0.573-1.512-1.513
			v-31.293c0-0.938,0.312-1.512,1.512-1.512h11.684C-538.485,159.73-530.661,163.329-530.661,171.465z M-538.851,172.195
			c0-3.286-2.398-5.216-5.84-5.216h-5.008v19.819h5.008c3.441,0,5.84-1.878,5.84-5.216V172.195z"/>
		<path fill="#005A9B" d="M-498.644,188.259v4.276c0,0.939-0.312,1.513-1.512,1.513h-23.365c-1.201,0-1.514-0.573-1.514-1.513
			v-31.293c0-0.938,0.312-1.512,1.514-1.512h22.479c1.199,0,1.512,0.573,1.512,1.512v4.329c0,0.938-0.312,1.513-1.512,1.513h-15.752
			v5.685h13.979c1.199,0,1.512,0.574,1.512,1.513v4.068c0,0.938-0.312,1.512-1.512,1.512h-13.979v6.885h16.639
			C-498.956,186.746-498.644,187.32-498.644,188.259z"/>
		<path fill="#005A9B" d="M-466.989,188.259v4.276c0,0.939-0.314,1.513-1.514,1.513h-23.365c-1.199,0-1.512-0.573-1.512-1.513
			v-31.293c0-0.938,0.312-1.512,1.512-1.512h22.479c1.199,0,1.514,0.573,1.514,1.512v4.329c0,0.938-0.314,1.513-1.514,1.513h-15.75
			v5.685h13.977c1.199,0,1.514,0.574,1.514,1.513v4.068c0,0.938-0.314,1.512-1.514,1.512h-13.977v6.885h16.637
			C-467.304,186.746-466.989,187.32-466.989,188.259z"/>
		<path fill="#005A9B" d="M-434.397,194.048h-6.154c-1.252,0-1.879-0.47-2.607-1.564l-5.633-8.397
			c-0.471-0.625-0.574-1.199-0.574-2.659v-4.173c0-0.938,0.312-1.513,1.512-1.513h1.043c2.557,0,4.955-1.772,4.955-4.224
			c0-2.713-2.086-4.434-4.799-4.434h-6.936v25.451c0,1.2-0.574,1.513-1.512,1.513h-5.164c-0.939,0-1.461-0.312-1.461-1.513v-31.24
			c0-0.938,0.262-1.513,1.461-1.513h13.143c5.686,0,8.189,1.147,10.379,3.338c1.93,1.878,3.025,4.851,3.025,8.188
			c0,5.477-4.016,9.283-7.25,10.379l7.354,10.691C-433.146,193.109-433.407,194.048-434.397,194.048z"/>
	</g>
</g>
<g>
	<circle cx="148.771" cy="135.188" r="4.553"/>
	<circle fill="#969696" cx="154.938" cy="124.91" r="4.097"/>
	<circle fill="#969696" cx="163.121" cy="117.641" r="3.687"/>
	<circle fill="#969696" cx="170.911" cy="110.808" r="3.318"/>
	<circle fill="#969696" cx="174.036" cy="102.312" r="2.986"/>
	<circle fill="#969696" cx="172.304" cy="93.892" r="2.688"/>
	<circle fill="#969696" cx="171.966" cy="85.875" r="2.42"/>
	<circle fill="#969696" cx="174.833" cy="79.207" r="2.178"/>
	<circle fill="#969696" cx="179.877" cy="74.702" r="1.96"/>
	<circle fill="#969696" cx="183.066" cy="69.623" r="1.763"/>
	<circle fill="#969696" cx="181.731" cy="64.112" r="1.588"/>
	<circle fill="#969696" cx="179.34" cy="59.664" r="1.286"/>
	<circle cx="133.68" cy="135.188" r="4.552"/>
	<circle cx="141.036" cy="146.553" r="4.553"/>
	<circle fill="#969696" cx="180.578" cy="92.68" r="2.518"/>
	<circle fill="#969696" cx="187.923" cy="89.349" r="2.265"/>
	<circle fill="#969696" cx="191.192" cy="82.838" r="2.04"/>
	<circle fill="#969696" cx="192.542" cy="76.49" r="1.836"/>
	<circle fill="#969696" cx="194.41" cy="87.938" r="1.763"/>
	<path fill="#969696" d="M199.595,86.049c-0.811,0.338-1.74-0.046-2.078-0.854c-0.338-0.81,0.047-1.74,0.855-2.076
		c0.807-0.338,1.738,0.045,2.076,0.854C200.784,84.78,200.403,85.711,199.595,86.049z"/>
	<circle fill="#969696" cx="202.167" cy="80.665" r="1.428"/>
	<circle fill="#969696" cx="161.648" cy="62.192" r="1.286"/>
	<circle fill="#969696" cx="192.314" cy="70.587" r="1.429"/>
	<circle fill="#969696" cx="179.314" cy="111.22" r="2.266"/>
	<circle fill="#969696" cx="186.311" cy="109.188" r="2.04"/>
	<path fill="#969696" d="M191.964,107.693c-1.012,0.046-1.871-0.737-1.918-1.752c-0.045-1.014,0.738-1.872,1.754-1.917
		c1.01-0.047,1.869,0.737,1.916,1.751C193.761,106.789,192.978,107.648,191.964,107.693z"/>
	<circle fill="#969696" cx="196.053" cy="101.676" r="1.429"/>
	<circle fill="#969696" cx="166.786" cy="80.163" r="2.274"/>
	<circle fill="#969696" cx="163.126" cy="73.647" r="2.046"/>
	<path fill="#969696" d="M161.286,69.095c0.871,0.116,1.67-0.495,1.787-1.369c0.115-0.872-0.498-1.672-1.371-1.786
		c-0.869-0.115-1.67,0.495-1.787,1.368C159.802,68.181,160.415,68.98,161.286,69.095z"/>
	<circle fill="#969696" cx="127.513" cy="124.91" r="4.098"/>
	<circle fill="#969696" cx="119.329" cy="117.641" r="3.688"/>
	<circle fill="#969696" cx="111.538" cy="110.808" r="3.318"/>
	<circle fill="#969696" cx="108.415" cy="102.312" r="2.986"/>
	<circle fill="#969696" cx="110.146" cy="93.892" r="2.688"/>
	<circle fill="#969696" cx="110.484" cy="85.875" r="2.419"/>
	<circle fill="#969696" cx="107.617" cy="79.207" r="2.177"/>
	<circle fill="#969696" cx="102.573" cy="74.702" r="1.959"/>
	<circle fill="#969696" cx="99.384" cy="69.623" r="1.764"/>
	<circle fill="#969696" cx="100.72" cy="64.112" r="1.588"/>
	<circle fill="#969696" cx="103.109" cy="59.664" r="1.286"/>
	<circle fill="#969696" cx="101.872" cy="92.68" r="2.517"/>
	<circle fill="#969696" cx="94.526" cy="89.349" r="2.265"/>
	<circle fill="#969696" cx="91.257" cy="82.838" r="2.04"/>
	<path fill="#969696" d="M88.507,77.678c0.654,0.773,1.812,0.869,2.588,0.213c0.773-0.656,0.871-1.813,0.213-2.588
		c-0.652-0.772-1.811-0.869-2.586-0.213C87.948,75.746,87.851,76.904,88.507,77.678z"/>
	<circle fill="#969696" cx="88.039" cy="87.938" r="1.763"/>
	<circle fill="#969696" cx="83.468" cy="84.584" r="1.587"/>
	<circle fill="#969696" cx="80.283" cy="80.665" r="1.429"/>
	<circle fill="#969696" cx="120.802" cy="62.192" r="1.286"/>
	<circle fill="#969696" cx="90.136" cy="70.587" r="1.429"/>
	<circle fill="#969696" cx="103.136" cy="111.22" r="2.265"/>
	<path fill="#969696" d="M96.046,111.226c1.127,0.05,2.08-0.823,2.133-1.947c0.051-1.125-0.822-2.079-1.947-2.129
		c-1.123-0.052-2.078,0.819-2.129,1.945C94.05,110.218,94.921,111.174,96.046,111.226z"/>
	<circle fill="#969696" cx="90.569" cy="105.859" r="1.836"/>
	<circle fill="#969696" cx="86.396" cy="101.676" r="1.429"/>
	<path fill="#969696" d="M116.956,82.033c-1.033,0.713-2.451,0.452-3.162-0.579c-0.717-1.033-0.455-2.448,0.578-3.162
		c1.031-0.712,2.447-0.454,3.162,0.579C118.245,79.902,117.989,81.319,116.956,82.033z"/>
	<path fill="#969696" d="M120.485,75.331c-0.928,0.641-2.201,0.408-2.844-0.521c-0.643-0.932-0.41-2.205,0.521-2.847
		c0.928-0.642,2.201-0.41,2.846,0.521C121.649,73.415,121.419,74.688,120.485,75.331z"/>
	<path fill="#969696" d="M121.163,69.095c-0.869,0.116-1.67-0.495-1.785-1.369c-0.115-0.872,0.496-1.672,1.371-1.786
		c0.869-0.115,1.67,0.495,1.785,1.368S122.036,68.98,121.163,69.095z"/>
	<g>
		<path d="M107.339,171.465v10.849c0,8.188-7.824,11.734-14.029,11.734H81.626c-1.199,0-1.512-0.573-1.512-1.513v-31.293
			c0-0.938,0.312-1.512,1.512-1.512H93.31C99.515,159.73,107.339,163.329,107.339,171.465z M99.149,172.195
			c0-3.286-2.398-5.216-5.84-5.216h-5.008v19.819h5.008c3.441,0,5.84-1.878,5.84-5.216V172.195z"/>
		<path d="M139.356,188.259v4.276c0,0.939-0.312,1.513-1.512,1.513h-23.365c-1.201,0-1.514-0.573-1.514-1.513v-31.293
			c0-0.938,0.312-1.512,1.514-1.512h22.479c1.199,0,1.512,0.573,1.512,1.512v4.329c0,0.938-0.312,1.513-1.512,1.513h-15.752v5.685
			h13.979c1.199,0,1.512,0.574,1.512,1.513v4.068c0,0.938-0.312,1.512-1.512,1.512h-13.979v6.885h16.639
			C139.044,186.746,139.356,187.32,139.356,188.259z"/>
		<path d="M171.011,188.259v4.276c0,0.939-0.314,1.513-1.514,1.513h-23.365c-1.199,0-1.512-0.573-1.512-1.513v-31.293
			c0-0.938,0.312-1.512,1.512-1.512h22.479c1.199,0,1.514,0.573,1.514,1.512v4.329c0,0.938-0.314,1.513-1.514,1.513h-15.75v5.685
			h13.977c1.199,0,1.514,0.574,1.514,1.513v4.068c0,0.938-0.314,1.512-1.514,1.512H152.86v6.885h16.637
			C170.696,186.746,171.011,187.32,171.011,188.259z"/>
		<path d="M203.603,194.048h-6.154c-1.252,0-1.879-0.47-2.607-1.564l-5.633-8.397c-0.471-0.625-0.574-1.199-0.574-2.659v-4.173
			c0-0.938,0.312-1.513,1.512-1.513h1.043c2.557,0,4.955-1.772,4.955-4.224c0-2.713-2.086-4.434-4.799-4.434h-6.936v25.451
			c0,1.2-0.574,1.513-1.512,1.513h-5.164c-0.939,0-1.461-0.312-1.461-1.513v-31.24c0-0.938,0.262-1.513,1.461-1.513h13.143
			c5.686,0,8.189,1.147,10.379,3.338c1.93,1.878,3.025,4.851,3.025,8.188c0,5.477-4.016,9.283-7.25,10.379l7.354,10.691
			C204.854,193.109,204.593,194.048,203.603,194.048z"/>
	</g>
</g>
</svg>
