<?xml version="1.0" encoding="utf-8"?>
<!-- Generator: Adobe Illustrator 15.0.2, SVG Export Plug-In . SVG Version: 6.00 Build 0)  -->
<!DOCTYPE svg PUBLIC "-//W3C//DTD SVG 1.1//EN" "http://www.w3.org/Graphics/SVG/1.1/DTD/svg11.dtd">
<svg version="1.1" id="Ebene_1" xmlns="http://www.w3.org/2000/svg" xmlns:xlink="http://www.w3.org/1999/xlink" x="0px" y="0px"
	 width="283.465px" height="283.465px" viewBox="0 0 283.465 283.465" enable-background="new 0 0 283.465 283.465"
	 xml:space="preserve">
<g>
	<path fill="#005A9B" d="M-77.802,132.871c0,57.318-46.47,103.799-103.799,103.799c-57.317,0-103.799-46.48-103.799-103.799
		s46.481-103.799,103.799-103.799C-124.271,29.072-77.802,75.553-77.802,132.871z"/>
	<circle fill="#FFFFFF" cx="-174.055" cy="135.188" r="4.552"/>
	<circle fill="#99BDD7" cx="-167.888" cy="124.91" r="4.097"/>
	<circle fill="#99BDD7" cx="-159.705" cy="117.641" r="3.687"/>
	<circle fill="#99BDD7" cx="-151.914" cy="110.808" r="3.318"/>
	<circle fill="#99BDD7" cx="-148.79" cy="102.312" r="2.986"/>
	<circle fill="#99BDD7" cx="-150.522" cy="93.892" r="2.688"/>
	<circle fill="#99BDD7" cx="-150.86" cy="85.875" r="2.419"/>
	<circle fill="#99BDD7" cx="-147.993" cy="79.207" r="2.177"/>
	<circle fill="#99BDD7" cx="-142.949" cy="74.702" r="1.959"/>
	<circle fill="#99BDD7" cx="-139.759" cy="69.623" r="1.763"/>
	<circle fill="#99BDD7" cx="-141.095" cy="64.112" r="1.588"/>
	<circle fill="#99BDD7" cx="-143.485" cy="59.664" r="1.286"/>
	<circle fill="#FFFFFF" cx="-189.146" cy="135.188" r="4.552"/>
	<circle fill="#FFFFFF" cx="-181.79" cy="146.553" r="4.552"/>
	<circle fill="#99BDD7" cx="-142.248" cy="92.68" r="2.517"/>
	<circle fill="#99BDD7" cx="-134.902" cy="89.349" r="2.265"/>
	<circle fill="#99BDD7" cx="-131.633" cy="82.838" r="2.04"/>
	<circle fill="#99BDD7" cx="-130.283" cy="76.49" r="1.836"/>
	<circle fill="#99BDD7" cx="-128.415" cy="87.938" r="1.763"/>
	<circle fill="#99BDD7" cx="-123.843" cy="84.584" r="1.587"/>
	<circle fill="#99BDD7" cx="-120.659" cy="80.665" r="1.429"/>
	<circle fill="#99BDD7" cx="-161.177" cy="62.192" r="1.286"/>
	<circle fill="#99BDD7" cx="-130.511" cy="70.587" r="1.429"/>
	<circle fill="#99BDD7" cx="-143.511" cy="111.22" r="2.265"/>
	<circle fill="#99BDD7" cx="-136.515" cy="109.188" r="2.04"/>
	<circle fill="#99BDD7" cx="-130.944" cy="105.859" r="1.836"/>
	<circle fill="#99BDD7" cx="-126.772" cy="101.676" r="1.429"/>
	<circle fill="#99BDD7" cx="-156.04" cy="80.163" r="2.274"/>
	<circle fill="#99BDD7" cx="-159.7" cy="73.647" r="2.046"/>
	<circle fill="#99BDD7" cx="-161.332" cy="67.517" r="1.591"/>
	<circle fill="#99BDD7" cx="-195.313" cy="124.91" r="4.097"/>
	<circle fill="#99BDD7" cx="-203.497" cy="117.641" r="3.687"/>
	<circle fill="#99BDD7" cx="-211.287" cy="110.808" r="3.318"/>
	<circle fill="#99BDD7" cx="-214.411" cy="102.312" r="2.986"/>
	<circle fill="#99BDD7" cx="-212.679" cy="93.892" r="2.688"/>
	<circle fill="#99BDD7" cx="-212.341" cy="85.875" r="2.419"/>
	<circle fill="#99BDD7" cx="-215.208" cy="79.207" r="2.177"/>
	<circle fill="#99BDD7" cx="-220.252" cy="74.702" r="1.959"/>
	<circle fill="#99BDD7" cx="-223.442" cy="69.623" r="1.763"/>
	<circle fill="#99BDD7" cx="-222.106" cy="64.112" r="1.588"/>
	<circle fill="#99BDD7" cx="-219.716" cy="59.664" r="1.286"/>
	<circle fill="#99BDD7" cx="-220.954" cy="92.68" r="2.517"/>
	<circle fill="#99BDD7" cx="-228.299" cy="89.349" r="2.265"/>
	<circle fill="#99BDD7" cx="-231.568" cy="82.838" r="2.04"/>
	<circle fill="#99BDD7" cx="-232.918" cy="76.49" r="1.836"/>
	<circle fill="#99BDD7" cx="-234.786" cy="87.938" r="1.763"/>
	<circle fill="#99BDD7" cx="-239.358" cy="84.584" r="1.587"/>
	<circle fill="#99BDD7" cx="-242.542" cy="80.665" r="1.429"/>
	<circle fill="#99BDD7" cx="-202.024" cy="62.192" r="1.286"/>
	<circle fill="#99BDD7" cx="-232.69" cy="70.587" r="1.429"/>
	<circle fill="#99BDD7" cx="-219.69" cy="111.22" r="2.265"/>
	<circle fill="#99BDD7" cx="-226.687" cy="109.188" r="2.04"/>
	<circle fill="#99BDD7" cx="-232.257" cy="105.859" r="1.836"/>
	<circle fill="#99BDD7" cx="-236.429" cy="101.676" r="1.429"/>
	<circle fill="#99BDD7" cx="-207.162" cy="80.163" r="2.274"/>
	<circle fill="#99BDD7" cx="-203.501" cy="73.647" r="2.046"/>
	<circle fill="#99BDD7" cx="-201.87" cy="67.517" r="1.591"/>
	<g>
		<path fill="#FFFFFF" d="M-215.487,171.465v10.849c0,8.188-7.823,11.734-14.029,11.734h-11.683c-1.199,0-1.513-0.573-1.513-1.513
			v-31.293c0-0.938,0.313-1.512,1.513-1.512h11.683C-223.311,159.73-215.487,163.329-215.487,171.465z M-223.676,172.195
			c0-3.286-2.398-5.216-5.841-5.216h-5.007v19.819h5.007c3.442,0,5.841-1.878,5.841-5.216V172.195z"/>
		<path fill="#FFFFFF" d="M-183.469,188.259v4.276c0,0.939-0.313,1.513-1.513,1.513h-23.365c-1.2,0-1.513-0.573-1.513-1.513v-31.293
			c0-0.938,0.312-1.512,1.513-1.512h22.479c1.199,0,1.513,0.573,1.513,1.512v4.329c0,0.938-0.313,1.513-1.513,1.513h-15.751v5.685
			h13.978c1.199,0,1.513,0.574,1.513,1.513v4.068c0,0.938-0.313,1.512-1.513,1.512h-13.978v6.885h16.638
			C-183.782,186.746-183.469,187.32-183.469,188.259z"/>
		<path fill="#FFFFFF" d="M-151.815,188.259v4.276c0,0.939-0.313,1.513-1.513,1.513h-23.365c-1.199,0-1.513-0.573-1.513-1.513
			v-31.293c0-0.938,0.313-1.512,1.513-1.512h22.479c1.199,0,1.513,0.573,1.513,1.512v4.329c0,0.938-0.313,1.513-1.513,1.513h-15.751
			v5.685h13.978c1.199,0,1.513,0.574,1.513,1.513v4.068c0,0.938-0.313,1.512-1.513,1.512h-13.978v6.885h16.638
			C-152.129,186.746-151.815,187.32-151.815,188.259z"/>
		<path fill="#FFFFFF" d="M-119.224,194.048h-6.154c-1.252,0-1.878-0.47-2.607-1.564l-5.633-8.397
			c-0.47-0.625-0.574-1.199-0.574-2.659v-4.173c0-0.938,0.313-1.513,1.513-1.513h1.043c2.556,0,4.955-1.772,4.955-4.224
			c0-2.713-2.086-4.434-4.799-4.434h-6.937v25.451c0,1.2-0.573,1.513-1.512,1.513h-5.164c-0.938,0-1.46-0.312-1.46-1.513v-31.24
			c0-0.938,0.261-1.513,1.46-1.513h13.144c5.685,0,8.188,1.147,10.379,3.338c1.93,1.878,3.024,4.851,3.024,8.188
			c0,5.477-4.016,9.283-7.249,10.379l7.354,10.691C-117.972,193.109-118.232,194.048-119.224,194.048z"/>
	</g>
</g>
<g>
	<path d="M566.198,132.871c0,57.318-46.47,103.799-103.799,103.799c-57.317,0-103.799-46.48-103.799-103.799
		S405.082,29.072,462.399,29.072C519.729,29.072,566.198,75.553,566.198,132.871z"/>
	<circle fill="#FFFFFF" cx="469.945" cy="135.188" r="4.552"/>
	<circle fill="#969696" cx="476.112" cy="124.91" r="4.097"/>
	<circle fill="#969696" cx="484.295" cy="117.641" r="3.687"/>
	<circle fill="#969696" cx="492.086" cy="110.808" r="3.318"/>
	<circle fill="#969696" cx="495.21" cy="102.312" r="2.986"/>
	<circle fill="#969696" cx="493.478" cy="93.892" r="2.688"/>
	<circle fill="#969696" cx="493.14" cy="85.875" r="2.419"/>
	<circle fill="#969696" cx="496.007" cy="79.207" r="2.177"/>
	<circle fill="#969696" cx="501.051" cy="74.702" r="1.959"/>
	<circle fill="#969696" cx="504.241" cy="69.623" r="1.763"/>
	<circle fill="#969696" cx="502.905" cy="64.112" r="1.588"/>
	<circle fill="#969696" cx="500.515" cy="59.664" r="1.286"/>
	<circle fill="#FFFFFF" cx="454.854" cy="135.188" r="4.552"/>
	<circle fill="#FFFFFF" cx="462.21" cy="146.553" r="4.552"/>
	<circle fill="#969696" cx="501.752" cy="92.68" r="2.517"/>
	<circle fill="#969696" cx="509.098" cy="89.349" r="2.265"/>
	<circle fill="#969696" cx="512.367" cy="82.838" r="2.04"/>
	<circle fill="#969696" cx="513.717" cy="76.49" r="1.836"/>
	<circle fill="#969696" cx="515.585" cy="87.938" r="1.763"/>
	<circle fill="#969696" cx="520.157" cy="84.584" r="1.587"/>
	<circle fill="#969696" cx="523.341" cy="80.665" r="1.429"/>
	<circle fill="#969696" cx="482.823" cy="62.192" r="1.286"/>
	<circle fill="#969696" cx="513.489" cy="70.587" r="1.429"/>
	<circle fill="#969696" cx="500.489" cy="111.22" r="2.265"/>
	<circle fill="#969696" cx="507.485" cy="109.188" r="2.04"/>
	<circle fill="#969696" cx="513.056" cy="105.859" r="1.836"/>
	<circle fill="#969696" cx="517.228" cy="101.676" r="1.429"/>
	<circle fill="#969696" cx="487.96" cy="80.163" r="2.274"/>
	<circle fill="#969696" cx="484.3" cy="73.647" r="2.046"/>
	<circle fill="#969696" cx="482.668" cy="67.517" r="1.591"/>
	<circle fill="#969696" cx="448.687" cy="124.91" r="4.097"/>
	<circle fill="#969696" cx="440.503" cy="117.641" r="3.687"/>
	<circle fill="#969696" cx="432.713" cy="110.808" r="3.318"/>
	<circle fill="#969696" cx="429.589" cy="102.312" r="2.986"/>
	<circle fill="#969696" cx="431.321" cy="93.892" r="2.688"/>
	<circle fill="#969696" cx="431.659" cy="85.875" r="2.419"/>
	<circle fill="#969696" cx="428.792" cy="79.207" r="2.177"/>
	<circle fill="#969696" cx="423.748" cy="74.702" r="1.959"/>
	<circle fill="#969696" cx="420.558" cy="69.623" r="1.763"/>
	<circle fill="#969696" cx="421.894" cy="64.112" r="1.588"/>
	<circle fill="#969696" cx="424.284" cy="59.664" r="1.286"/>
	<circle fill="#969696" cx="423.046" cy="92.68" r="2.517"/>
	<circle fill="#969696" cx="415.701" cy="89.349" r="2.265"/>
	<circle fill="#969696" cx="412.432" cy="82.838" r="2.04"/>
	<circle fill="#969696" cx="411.082" cy="76.49" r="1.836"/>
	<circle fill="#969696" cx="409.214" cy="87.938" r="1.763"/>
	<circle fill="#969696" cx="404.642" cy="84.584" r="1.587"/>
	<circle fill="#969696" cx="401.458" cy="80.665" r="1.429"/>
	<circle fill="#969696" cx="441.976" cy="62.192" r="1.286"/>
	<circle fill="#969696" cx="411.31" cy="70.587" r="1.429"/>
	<circle fill="#969696" cx="424.31" cy="111.22" r="2.265"/>
	<circle fill="#969696" cx="417.313" cy="109.188" r="2.04"/>
	<circle fill="#969696" cx="411.743" cy="105.859" r="1.836"/>
	<circle fill="#969696" cx="407.571" cy="101.676" r="1.429"/>
	<circle fill="#969696" cx="436.838" cy="80.163" r="2.274"/>
	<circle fill="#969696" cx="440.499" cy="73.647" r="2.046"/>
	<circle fill="#969696" cx="442.13" cy="67.517" r="1.591"/>
	<g>
		<path fill="#FFFFFF" d="M428.513,171.465v10.849c0,8.188-7.823,11.734-14.029,11.734h-11.683c-1.199,0-1.513-0.573-1.513-1.513
			v-31.293c0-0.938,0.313-1.512,1.513-1.512h11.683C420.689,159.73,428.513,163.329,428.513,171.465z M420.324,172.195
			c0-3.286-2.398-5.216-5.841-5.216h-5.007v19.819h5.007c3.442,0,5.841-1.878,5.841-5.216V172.195z"/>
		<path fill="#FFFFFF" d="M460.531,188.259v4.276c0,0.939-0.313,1.513-1.513,1.513h-23.365c-1.2,0-1.513-0.573-1.513-1.513v-31.293
			c0-0.938,0.312-1.512,1.513-1.512h22.479c1.199,0,1.513,0.573,1.513,1.512v4.329c0,0.938-0.313,1.513-1.513,1.513h-15.751v5.685
			h13.978c1.199,0,1.513,0.574,1.513,1.513v4.068c0,0.938-0.313,1.512-1.513,1.512h-13.978v6.885h16.638
			C460.218,186.746,460.531,187.32,460.531,188.259z"/>
		<path fill="#FFFFFF" d="M492.185,188.259v4.276c0,0.939-0.313,1.513-1.513,1.513h-23.365c-1.199,0-1.513-0.573-1.513-1.513
			v-31.293c0-0.938,0.313-1.512,1.513-1.512h22.479c1.199,0,1.513,0.573,1.513,1.512v4.329c0,0.938-0.313,1.513-1.513,1.513h-15.751
			v5.685h13.978c1.199,0,1.513,0.574,1.513,1.513v4.068c0,0.938-0.313,1.512-1.513,1.512h-13.978v6.885h16.638
			C491.871,186.746,492.185,187.32,492.185,188.259z"/>
		<path fill="#FFFFFF" d="M524.776,194.048h-6.154c-1.252,0-1.878-0.47-2.607-1.564l-5.633-8.397
			c-0.47-0.625-0.574-1.199-0.574-2.659v-4.173c0-0.938,0.313-1.513,1.513-1.513h1.043c2.556,0,4.955-1.772,4.955-4.224
			c0-2.713-2.086-4.434-4.799-4.434h-6.937v25.451c0,1.2-0.573,1.513-1.512,1.513h-5.164c-0.938,0-1.46-0.312-1.46-1.513v-31.24
			c0-0.938,0.261-1.513,1.46-1.513h13.144c5.685,0,8.188,1.147,10.379,3.338c1.93,1.878,3.024,4.851,3.024,8.188
			c0,5.477-4.016,9.283-7.249,10.379l7.354,10.691C526.028,193.109,525.768,194.048,524.776,194.048z"/>
	</g>
</g>
<g>
	<circle fill="#005A9B" cx="148.771" cy="135.188" r="4.553"/>
	<circle fill="#8CB5D2" cx="154.938" cy="124.91" r="4.097"/>
	<circle fill="#8CB5D2" cx="163.121" cy="117.641" r="3.687"/>
	<circle fill="#8CB5D2" cx="170.911" cy="110.808" r="3.318"/>
	<circle fill="#8CB5D2" cx="174.036" cy="102.312" r="2.986"/>
	<circle fill="#8CB5D2" cx="172.304" cy="93.892" r="2.688"/>
	<circle fill="#8CB5D2" cx="171.966" cy="85.875" r="2.42"/>
	<circle fill="#8CB5D2" cx="174.833" cy="79.207" r="2.178"/>
	<circle fill="#8CB5D2" cx="179.877" cy="74.702" r="1.96"/>
	<circle fill="#8CB5D2" cx="183.066" cy="69.623" r="1.763"/>
	<circle fill="#8CB5D2" cx="181.731" cy="64.112" r="1.588"/>
	<circle fill="#8CB5D2" cx="179.34" cy="59.664" r="1.286"/>
	<circle fill="#005A9B" cx="133.68" cy="135.188" r="4.552"/>
	<circle fill="#005A9B" cx="141.036" cy="146.553" r="4.553"/>
	<circle fill="#8CB5D2" cx="180.578" cy="92.68" r="2.518"/>
	<circle fill="#8CB5D2" cx="187.923" cy="89.349" r="2.265"/>
	<circle fill="#8CB5D2" cx="191.192" cy="82.838" r="2.04"/>
	<circle fill="#8CB5D2" cx="192.542" cy="76.49" r="1.836"/>
	<circle fill="#8CB5D2" cx="194.41" cy="87.938" r="1.763"/>
	<path fill="#8CB5D2" d="M199.595,86.049c-0.811,0.338-1.74-0.046-2.078-0.854c-0.338-0.81,0.047-1.74,0.855-2.076
		c0.807-0.338,1.738,0.045,2.076,0.854C200.784,84.78,200.403,85.711,199.595,86.049z"/>
	<circle fill="#8CB5D2" cx="202.167" cy="80.665" r="1.428"/>
	<circle fill="#8CB5D2" cx="161.648" cy="62.192" r="1.286"/>
	<circle fill="#8CB5D2" cx="192.314" cy="70.587" r="1.429"/>
	<circle fill="#8CB5D2" cx="179.314" cy="111.22" r="2.266"/>
	<circle fill="#8CB5D2" cx="186.311" cy="109.188" r="2.04"/>
	<path fill="#8CB5D2" d="M191.964,107.693c-1.012,0.046-1.871-0.737-1.918-1.752c-0.045-1.014,0.738-1.872,1.754-1.917
		c1.01-0.047,1.869,0.737,1.916,1.751C193.761,106.789,192.978,107.648,191.964,107.693z"/>
	<circle fill="#8CB5D2" cx="196.053" cy="101.676" r="1.429"/>
	<circle fill="#8CB5D2" cx="166.786" cy="80.163" r="2.274"/>
	<circle fill="#8CB5D2" cx="163.126" cy="73.647" r="2.046"/>
	<path fill="#8CB5D2" d="M161.286,69.095c0.871,0.116,1.67-0.495,1.787-1.369c0.115-0.872-0.498-1.672-1.371-1.786
		c-0.869-0.115-1.67,0.495-1.787,1.368C159.802,68.181,160.415,68.98,161.286,69.095z"/>
	<circle fill="#8CB5D2" cx="127.513" cy="124.91" r="4.098"/>
	<circle fill="#8CB5D2" cx="119.329" cy="117.641" r="3.688"/>
	<circle fill="#8CB5D2" cx="111.538" cy="110.808" r="3.318"/>
	<circle fill="#8CB5D2" cx="108.415" cy="102.312" r="2.986"/>
	<circle fill="#8CB5D2" cx="110.146" cy="93.892" r="2.688"/>
	<circle fill="#8CB5D2" cx="110.484" cy="85.875" r="2.419"/>
	<circle fill="#8CB5D2" cx="107.617" cy="79.207" r="2.177"/>
	<circle fill="#8CB5D2" cx="102.573" cy="74.702" r="1.959"/>
	<circle fill="#8CB5D2" cx="99.384" cy="69.623" r="1.764"/>
	<circle fill="#8CB5D2" cx="100.72" cy="64.112" r="1.588"/>
	<circle fill="#8CB5D2" cx="103.109" cy="59.664" r="1.286"/>
	<circle fill="#8CB5D2" cx="101.872" cy="92.68" r="2.517"/>
	<circle fill="#8CB5D2" cx="94.526" cy="89.349" r="2.265"/>
	<circle fill="#8CB5D2" cx="91.257" cy="82.838" r="2.04"/>
	<path fill="#8CB5D2" d="M88.507,77.678c0.654,0.773,1.812,0.869,2.588,0.213c0.773-0.656,0.871-1.813,0.213-2.588
		c-0.652-0.772-1.811-0.869-2.586-0.213C87.948,75.746,87.851,76.904,88.507,77.678z"/>
	<circle fill="#8CB5D2" cx="88.039" cy="87.938" r="1.763"/>
	<circle fill="#8CB5D2" cx="83.468" cy="84.584" r="1.587"/>
	<circle fill="#8CB5D2" cx="80.283" cy="80.665" r="1.429"/>
	<circle fill="#8CB5D2" cx="120.802" cy="62.192" r="1.286"/>
	<circle fill="#8CB5D2" cx="90.136" cy="70.587" r="1.429"/>
	<circle fill="#8CB5D2" cx="103.136" cy="111.22" r="2.265"/>
	<path fill="#8CB5D2" d="M96.046,111.226c1.127,0.05,2.08-0.823,2.133-1.947c0.051-1.125-0.822-2.079-1.947-2.129
		c-1.123-0.052-2.078,0.819-2.129,1.945C94.05,110.218,94.921,111.174,96.046,111.226z"/>
	<circle fill="#8CB5D2" cx="90.569" cy="105.859" r="1.836"/>
	<circle fill="#8CB5D2" cx="86.396" cy="101.676" r="1.429"/>
	<path fill="#8CB5D2" d="M116.956,82.033c-1.033,0.713-2.451,0.452-3.162-0.579c-0.717-1.033-0.455-2.448,0.578-3.162
		c1.031-0.712,2.447-0.454,3.162,0.579C118.245,79.902,117.989,81.319,116.956,82.033z"/>
	<path fill="#8CB5D2" d="M120.485,75.331c-0.928,0.641-2.201,0.408-2.844-0.521c-0.643-0.932-0.41-2.205,0.521-2.847
		c0.928-0.642,2.201-0.41,2.846,0.521C121.649,73.415,121.419,74.688,120.485,75.331z"/>
	<path fill="#8CB5D2" d="M121.163,69.095c-0.869,0.116-1.67-0.495-1.785-1.369c-0.115-0.872,0.496-1.672,1.371-1.786
		c0.869-0.115,1.67,0.495,1.785,1.368S122.036,68.98,121.163,69.095z"/>
	<g>
		<path fill="#005A9B" d="M107.339,171.465v10.849c0,8.188-7.824,11.734-14.029,11.734H81.626c-1.199,0-1.512-0.573-1.512-1.513
			v-31.293c0-0.938,0.312-1.512,1.512-1.512H93.31C99.515,159.73,107.339,163.329,107.339,171.465z M99.149,172.195
			c0-3.286-2.398-5.216-5.84-5.216h-5.008v19.819h5.008c3.441,0,5.84-1.878,5.84-5.216V172.195z"/>
		<path fill="#005A9B" d="M139.356,188.259v4.276c0,0.939-0.312,1.513-1.512,1.513h-23.365c-1.201,0-1.514-0.573-1.514-1.513
			v-31.293c0-0.938,0.312-1.512,1.514-1.512h22.479c1.199,0,1.512,0.573,1.512,1.512v4.329c0,0.938-0.312,1.513-1.512,1.513h-15.752
			v5.685h13.979c1.199,0,1.512,0.574,1.512,1.513v4.068c0,0.938-0.312,1.512-1.512,1.512h-13.979v6.885h16.639
			C139.044,186.746,139.356,187.32,139.356,188.259z"/>
		<path fill="#005A9B" d="M171.011,188.259v4.276c0,0.939-0.314,1.513-1.514,1.513h-23.365c-1.199,0-1.512-0.573-1.512-1.513
			v-31.293c0-0.938,0.312-1.512,1.512-1.512h22.479c1.199,0,1.514,0.573,1.514,1.512v4.329c0,0.938-0.314,1.513-1.514,1.513h-15.75
			v5.685h13.977c1.199,0,1.514,0.574,1.514,1.513v4.068c0,0.938-0.314,1.512-1.514,1.512H152.86v6.885h16.637
			C170.696,186.746,171.011,187.32,171.011,188.259z"/>
		<path fill="#005A9B" d="M203.603,194.048h-6.154c-1.252,0-1.879-0.47-2.607-1.564l-5.633-8.397
			c-0.471-0.625-0.574-1.199-0.574-2.659v-4.173c0-0.938,0.312-1.513,1.512-1.513h1.043c2.557,0,4.955-1.772,4.955-4.224
			c0-2.713-2.086-4.434-4.799-4.434h-6.936v25.451c0,1.2-0.574,1.513-1.512,1.513h-5.164c-0.939,0-1.461-0.312-1.461-1.513v-31.24
			c0-0.938,0.262-1.513,1.461-1.513h13.143c5.686,0,8.189,1.147,10.379,3.338c1.93,1.878,3.025,4.851,3.025,8.188
			c0,5.477-4.016,9.283-7.25,10.379l7.354,10.691C204.854,193.109,204.593,194.048,203.603,194.048z"/>
	</g>
</g>
<g>
	<circle cx="786.771" cy="135.188" r="4.553"/>
	<circle fill="#969696" cx="792.938" cy="124.91" r="4.097"/>
	<circle fill="#969696" cx="801.121" cy="117.641" r="3.687"/>
	<circle fill="#969696" cx="808.911" cy="110.808" r="3.318"/>
	<circle fill="#969696" cx="812.036" cy="102.312" r="2.986"/>
	<circle fill="#969696" cx="810.304" cy="93.892" r="2.688"/>
	<circle fill="#969696" cx="809.966" cy="85.875" r="2.42"/>
	<circle fill="#969696" cx="812.833" cy="79.207" r="2.178"/>
	<circle fill="#969696" cx="817.877" cy="74.702" r="1.96"/>
	<circle fill="#969696" cx="821.066" cy="69.623" r="1.763"/>
	<circle fill="#969696" cx="819.731" cy="64.112" r="1.588"/>
	<circle fill="#969696" cx="817.34" cy="59.664" r="1.286"/>
	<circle cx="771.68" cy="135.188" r="4.552"/>
	<circle cx="779.036" cy="146.553" r="4.553"/>
	<circle fill="#969696" cx="818.578" cy="92.68" r="2.518"/>
	<circle fill="#969696" cx="825.923" cy="89.349" r="2.265"/>
	<circle fill="#969696" cx="829.192" cy="82.838" r="2.04"/>
	<circle fill="#969696" cx="830.542" cy="76.49" r="1.836"/>
	<circle fill="#969696" cx="832.41" cy="87.938" r="1.763"/>
	<path fill="#969696" d="M837.595,86.049c-0.811,0.338-1.74-0.046-2.078-0.854c-0.338-0.81,0.047-1.74,0.855-2.076
		c0.807-0.338,1.738,0.045,2.076,0.854C838.784,84.78,838.403,85.711,837.595,86.049z"/>
	<circle fill="#969696" cx="840.167" cy="80.665" r="1.428"/>
	<circle fill="#969696" cx="799.648" cy="62.192" r="1.286"/>
	<circle fill="#969696" cx="830.314" cy="70.587" r="1.429"/>
	<circle fill="#969696" cx="817.314" cy="111.22" r="2.266"/>
	<circle fill="#969696" cx="824.311" cy="109.188" r="2.04"/>
	<path fill="#969696" d="M829.964,107.693c-1.012,0.046-1.871-0.737-1.918-1.752c-0.045-1.014,0.738-1.872,1.754-1.917
		c1.01-0.047,1.869,0.737,1.916,1.751C831.761,106.789,830.978,107.648,829.964,107.693z"/>
	<circle fill="#969696" cx="834.053" cy="101.676" r="1.429"/>
	<circle fill="#969696" cx="804.786" cy="80.163" r="2.274"/>
	<circle fill="#969696" cx="801.126" cy="73.647" r="2.046"/>
	<path fill="#969696" d="M799.286,69.095c0.871,0.116,1.67-0.495,1.787-1.369c0.115-0.872-0.498-1.672-1.371-1.786
		c-0.869-0.115-1.67,0.495-1.787,1.368C797.802,68.181,798.415,68.98,799.286,69.095z"/>
	<circle fill="#969696" cx="765.513" cy="124.91" r="4.098"/>
	<circle fill="#969696" cx="757.329" cy="117.641" r="3.688"/>
	<circle fill="#969696" cx="749.538" cy="110.808" r="3.318"/>
	<circle fill="#969696" cx="746.415" cy="102.312" r="2.986"/>
	<circle fill="#969696" cx="748.146" cy="93.892" r="2.688"/>
	<circle fill="#969696" cx="748.484" cy="85.875" r="2.419"/>
	<circle fill="#969696" cx="745.617" cy="79.207" r="2.177"/>
	<circle fill="#969696" cx="740.573" cy="74.702" r="1.959"/>
	<circle fill="#969696" cx="737.384" cy="69.623" r="1.764"/>
	<circle fill="#969696" cx="738.72" cy="64.112" r="1.588"/>
	<circle fill="#969696" cx="741.109" cy="59.664" r="1.286"/>
	<circle fill="#969696" cx="739.872" cy="92.68" r="2.517"/>
	<circle fill="#969696" cx="732.526" cy="89.349" r="2.265"/>
	<circle fill="#969696" cx="729.257" cy="82.838" r="2.04"/>
	<path fill="#969696" d="M726.507,77.678c0.654,0.773,1.812,0.869,2.588,0.213c0.773-0.656,0.871-1.813,0.213-2.588
		c-0.652-0.772-1.811-0.869-2.586-0.213C725.948,75.746,725.851,76.904,726.507,77.678z"/>
	<circle fill="#969696" cx="726.039" cy="87.938" r="1.763"/>
	<circle fill="#969696" cx="721.468" cy="84.584" r="1.587"/>
	<circle fill="#969696" cx="718.283" cy="80.665" r="1.429"/>
	<circle fill="#969696" cx="758.802" cy="62.192" r="1.286"/>
	<circle fill="#969696" cx="728.136" cy="70.587" r="1.429"/>
	<circle fill="#969696" cx="741.136" cy="111.22" r="2.265"/>
	<path fill="#969696" d="M734.046,111.226c1.127,0.05,2.08-0.823,2.133-1.947c0.051-1.125-0.822-2.079-1.947-2.129
		c-1.123-0.052-2.078,0.819-2.129,1.945C732.05,110.218,732.921,111.174,734.046,111.226z"/>
	<circle fill="#969696" cx="728.569" cy="105.859" r="1.836"/>
	<circle fill="#969696" cx="724.396" cy="101.676" r="1.429"/>
	<path fill="#969696" d="M754.956,82.033c-1.033,0.713-2.451,0.452-3.162-0.579c-0.717-1.033-0.455-2.448,0.578-3.162
		c1.031-0.712,2.447-0.454,3.162,0.579C756.245,79.902,755.989,81.319,754.956,82.033z"/>
	<path fill="#969696" d="M758.485,75.331c-0.928,0.641-2.201,0.408-2.844-0.521c-0.643-0.932-0.41-2.205,0.521-2.847
		c0.928-0.642,2.201-0.41,2.846,0.521C759.649,73.415,759.419,74.688,758.485,75.331z"/>
	<path fill="#969696" d="M759.163,69.095c-0.869,0.116-1.67-0.495-1.785-1.369c-0.115-0.872,0.496-1.672,1.371-1.786
		c0.869-0.115,1.67,0.495,1.785,1.368S760.036,68.98,759.163,69.095z"/>
	<g>
		<path d="M745.339,171.465v10.849c0,8.188-7.824,11.734-14.029,11.734h-11.684c-1.199,0-1.512-0.573-1.512-1.513v-31.293
			c0-0.938,0.312-1.512,1.512-1.512h11.684C737.515,159.73,745.339,163.329,745.339,171.465z M737.149,172.195
			c0-3.286-2.398-5.216-5.84-5.216h-5.008v19.819h5.008c3.441,0,5.84-1.878,5.84-5.216V172.195z"/>
		<path d="M777.356,188.259v4.276c0,0.939-0.312,1.513-1.512,1.513h-23.365c-1.201,0-1.514-0.573-1.514-1.513v-31.293
			c0-0.938,0.312-1.512,1.514-1.512h22.479c1.199,0,1.512,0.573,1.512,1.512v4.329c0,0.938-0.312,1.513-1.512,1.513h-15.752v5.685
			h13.979c1.199,0,1.512,0.574,1.512,1.513v4.068c0,0.938-0.312,1.512-1.512,1.512h-13.979v6.885h16.639
			C777.044,186.746,777.356,187.32,777.356,188.259z"/>
		<path d="M809.011,188.259v4.276c0,0.939-0.314,1.513-1.514,1.513h-23.365c-1.199,0-1.512-0.573-1.512-1.513v-31.293
			c0-0.938,0.312-1.512,1.512-1.512h22.479c1.199,0,1.514,0.573,1.514,1.512v4.329c0,0.938-0.314,1.513-1.514,1.513h-15.75v5.685
			h13.977c1.199,0,1.514,0.574,1.514,1.513v4.068c0,0.938-0.314,1.512-1.514,1.512H790.86v6.885h16.637
			C808.696,186.746,809.011,187.32,809.011,188.259z"/>
		<path d="M841.603,194.048h-6.154c-1.252,0-1.879-0.47-2.607-1.564l-5.633-8.397c-0.471-0.625-0.574-1.199-0.574-2.659v-4.173
			c0-0.938,0.312-1.513,1.512-1.513h1.043c2.557,0,4.955-1.772,4.955-4.224c0-2.713-2.086-4.434-4.799-4.434h-6.936v25.451
			c0,1.2-0.574,1.513-1.512,1.513h-5.164c-0.939,0-1.461-0.312-1.461-1.513v-31.24c0-0.938,0.262-1.513,1.461-1.513h13.143
			c5.686,0,8.189,1.147,10.379,3.338c1.93,1.878,3.025,4.851,3.025,8.188c0,5.477-4.016,9.283-7.25,10.379l7.354,10.691
			C842.854,193.109,842.593,194.048,841.603,194.048z"/>
	</g>
</g>
</svg>
